<svg width="306" height="128" viewBox="0 0 306 128" fill="none" xmlns="http://www.w3.org/2000/svg">
<path d="M19.3052 32.4015H19.4208C19.4208 32.4015 19.4208 32.4016 19.4208 32.4988L19.3052 32.4015Z" fill="url(#paint0_linear_60_4177)"/>
<path d="M6.18613 111.395C6.75896 111.481 7.34324 111.35 7.82334 111.028C8.30343 110.707 8.64435 110.218 8.77859 109.659C9.03698 109.038 9.36959 108.449 9.76932 107.906C10.1821 107.366 9.6042 107.251 9.38954 106.989C8.86114 106.35 8.03552 106.498 7.29246 106.383C7.0778 106.383 6.91268 106.104 6.73104 105.957C6.83544 105.861 6.95199 105.778 7.07779 105.711C7.90341 105.4 8.72903 105.138 9.55465 104.81C10.9252 104.237 11.1068 102.877 11.9159 101.927C12.2627 101.518 11.7508 100.945 11.3545 100.502C11.2747 100.438 11.2124 100.355 11.1734 100.261C11.1345 100.167 11.1201 100.064 11.1316 99.9631C11.1431 99.8619 11.1802 99.7652 11.2394 99.6819C11.2985 99.5986 11.3779 99.5315 11.4701 99.4867C12.1957 99.1477 12.7795 98.5685 13.1213 97.8487C13.9743 96.6467 15.2546 95.8097 16.7045 95.5062C19.5942 94.851 22.2362 93.4423 25.357 93.4751C25.9242 93.3729 26.4781 93.2081 27.0083 92.9837C28.3961 92.4759 29.845 92.1509 31.318 92.0172C32.9693 92.0172 34.1912 91.0343 35.7269 91.149C37.2625 91.2637 38.4679 90.0188 40.0696 90.1662C40.3503 90.1662 40.6475 89.4291 40.5154 89.1834C40.3833 88.9377 40.1026 88.7902 39.8054 89.0523C39.1945 89.5929 38.6661 88.8558 38.3028 88.9377C37.6093 89.0851 37.0478 89.5601 36.2057 89.5437C34.0591 89.5437 31.896 89.5437 29.7328 89.5437C29.4431 89.5252 29.1584 89.4587 28.8907 89.3472C28.7751 89.3472 28.6265 89.1506 28.6265 89.0523C28.6265 88.954 28.6265 88.3971 28.7751 88.3152C29.6506 87.7889 30.6116 87.4175 31.6152 87.2177C32.6293 86.947 33.6181 86.5908 34.571 86.153C35.2315 85.9892 35.0994 85.2848 35.0003 84.7606C34.9657 84.5492 34.8575 84.3565 34.6947 84.2159C34.5318 84.0753 34.3245 83.9956 34.1086 83.9907C32.7216 83.9907 31.3345 83.9088 29.9475 83.9907C28.5605 84.0726 27.1734 84.9408 25.5552 84.8753C24.9773 84.8753 24.3498 85.6124 23.7388 86.0056C23.6277 86.0698 23.5037 86.109 23.3756 86.1202C23.2161 85.9115 23.1035 85.6713 23.0453 85.4158C23.0453 84.7442 23.0453 84.0071 24.1021 83.9744C25.4892 83.9744 26.5129 82.8769 28.0321 83.0407C29.5512 83.2045 30.4759 82.1234 31.962 82.2544C32.9858 82.3363 33.3986 81.6975 32.9528 80.9767C32.6132 80.3963 32.3522 79.7739 32.1767 79.1257C31.9959 78.581 31.6262 78.1175 31.1334 77.8176C30.6406 77.5177 30.0566 77.4008 29.4852 77.4877C29.5375 77.7382 29.5241 77.9979 29.446 78.2418C29.3679 78.4856 29.2278 78.7054 29.0393 78.88C28.874 78.6831 28.7404 78.4621 28.643 78.2248C28.6014 77.9863 28.6014 77.7425 28.643 77.5041H28.5439C28.5503 77.4771 28.5503 77.4491 28.5439 77.4222C28.1928 77.3513 27.8294 77.3681 27.4864 77.471C27.1435 77.574 26.8316 77.7598 26.579 78.0119C26.2487 78.4378 26.0341 78.9292 25.7368 79.3715C25.6552 79.4895 25.5498 79.5894 25.4271 79.6648C25.3045 79.7402 25.1674 79.7895 25.0245 79.8096C24.8816 79.8296 24.7361 79.8199 24.5972 79.7811C24.4583 79.7424 24.3291 79.6754 24.2177 79.5844C23.8137 79.2084 23.4384 78.8033 23.0949 78.3722C22.3518 77.4058 21.7078 77.1601 20.1226 77.4877C19.1979 77.6679 19.3135 78.3886 19.2805 78.9947C18.8679 78.9492 18.4782 78.7833 18.1607 78.5179C17.8432 78.2526 17.6123 77.8997 17.4971 77.5041C17.4095 77.1756 17.4107 76.8301 17.5005 76.5022C17.5904 76.1744 17.7658 75.8758 18.009 75.6367C18.4714 75.1125 18.7851 74.49 19.2144 73.9986C19.392 73.8082 19.6319 73.6863 19.8914 73.6546C21.0473 74.5556 21.972 73.54 22.682 73.196C23.7657 72.4376 24.9801 71.8824 26.2652 71.5579C26.9257 71.476 26.6615 70.6734 26.7771 70.182C27.9224 69.4043 29.1258 68.7143 30.3768 68.118C30.6478 68.0647 30.8916 67.9195 31.0664 67.7073C31.2412 67.4951 31.336 67.229 31.3345 66.955L29.5347 66.2179C29.5347 66.3325 29.5347 66.4636 29.4191 66.4964C27.7627 67.0034 26.1411 67.6162 24.5645 68.331C24.3003 68.4948 23.8709 67.987 23.9865 67.5611C24.1011 66.7492 24.4096 65.9762 24.8864 65.3066C25.3632 64.637 25.9945 64.0901 26.7276 63.7116C30.2563 62.1877 33.9697 61.125 37.7744 60.5502C39.2705 60.4719 40.754 60.2358 42.1997 59.8459C43.6985 59.5405 45.2361 59.4686 46.7572 59.6329C47.0533 59.662 47.3516 59.6051 47.6158 59.4691C48.6561 58.6501 50.0596 59.207 51.0999 58.7648C52.0147 58.2434 53.0733 58.0253 54.1217 58.1423C55.3601 58.4535 56.2353 57.3396 57.4242 57.7819C57.9195 57.9457 58.7617 57.487 59.3892 57.2086C60.0166 56.9301 59.868 56.2913 59.9341 55.7835C60.0001 55.2757 60.4625 54.8826 61.156 54.8826L67.6123 54.7843C68.3634 54.8542 69.1209 54.7762 69.8415 54.5549C70.8226 54.152 71.8901 53.9999 72.9458 54.1127C75.8685 54.1127 78.8078 53.8834 81.714 54.1127C84.6201 54.342 87.6584 53.0643 90.7297 53.2773C90.8783 53.2773 91.06 52.9824 91.2251 52.8186C91.1095 52.8186 90.9774 52.6057 90.8618 52.5893C90.0857 52.5893 89.3262 52.5893 88.5666 52.5893C82.424 52.5893 76.2649 52.5893 70.1222 52.5893C68.0252 52.5893 65.862 52.1962 63.8145 53.179C63.3852 53.3919 62.4605 52.704 61.7504 52.6876C61.0404 52.6712 60.1817 53.3428 59.1745 53.3101C55.6408 53.3101 52.1072 53.3101 48.557 53.3101C48.207 53.3344 47.8582 53.2475 47.5612 53.062C47.2643 52.8764 47.0347 52.6018 46.9058 52.2781C46.526 51.6884 45.4692 51.4427 44.7096 51.0495C43.7684 52.0979 42.7611 50.4926 41.919 51.0495C40.5485 51.9832 38.9963 51.6229 37.4937 51.7212C36.1378 51.556 34.7622 51.7598 33.5142 52.3108C32.9491 52.5163 32.3289 52.5163 31.7639 52.3108C30.8964 52.1262 30.0796 51.7574 29.3696 51.2297C29.1691 50.9671 28.9174 50.7471 28.6295 50.5829C28.3416 50.4187 28.0234 50.3136 27.6937 50.2739C27.3641 50.2342 27.0297 50.2606 26.7106 50.3516C26.3914 50.4427 26.0939 50.5965 25.8359 50.8038C25.5592 50.8768 25.2705 50.8941 24.9869 50.8547C24.7033 50.8153 24.4306 50.72 24.1847 50.5745C23.5546 50.2092 22.8335 50.0275 22.1041 50.0503C22.0843 49.8575 21.9948 49.6782 21.8521 49.5458C21.7095 49.4133 21.5233 49.3365 21.328 49.3296C18.8016 49.4442 16.2092 48.9037 13.7653 49.9848C13.1709 50.2469 12.692 49.6244 12.3122 49.2313C11.9325 48.8382 11.982 49.0511 11.9159 49.0839L12.0645 48.9364C12.7049 48.201 13.4438 47.5562 14.2607 47.02C14.7891 46.6923 15.334 47.2493 15.9119 47.4131C17.209 47.7657 18.5778 47.7657 19.8749 47.4131C20.0566 47.4131 20.1391 47.0691 20.2547 46.8561H21.5922C22.7646 46.8561 22.9628 46.6268 23.0453 45.775C23.1279 44.9232 22.9297 44.6284 21.9225 44.4482C21.6252 44.4482 21.295 44.4482 21.0143 44.4482C20.7336 44.4482 20.1887 44.1697 20.3373 43.6455C20.377 43.4389 20.4909 43.2536 20.6579 43.1241C20.825 42.9945 21.0337 42.9295 21.2454 42.9412C22.3005 43.0154 23.3606 42.9158 24.3828 42.6463C25.6393 42.1253 27.0096 41.9336 28.3623 42.0894C30.0135 42.2041 31.1199 41.0574 32.7381 41.2704C34.0903 41.5212 35.481 41.4821 36.8167 41.1557C38.229 40.7288 39.6768 40.4274 41.1429 40.2548C41.2915 40.2548 41.3741 39.9108 41.4732 39.6979H32.8207C31.9337 39.7157 31.0543 39.8648 30.2117 40.1401C28.3227 40.7024 26.3174 40.7589 24.3993 40.3039C23.7223 40.1565 23.1444 39.6487 22.3188 39.7142C19.7759 39.878 17.1504 39.2883 14.7065 40.4514C14.1029 40.5843 13.4773 40.5843 12.8737 40.4514C12.6068 40.3618 12.3518 40.2408 12.1141 40.091C12.314 39.9235 12.5297 39.7754 12.7581 39.6487C14.9893 38.8468 17.3047 38.2973 19.6603 38.0107C20.7171 37.8469 21.8069 38.0106 22.8802 37.9123C23.3085 37.8396 23.7181 37.6838 24.0856 37.4537C24.3255 37.3058 24.5064 37.0801 24.5975 36.8149C24.5975 36.733 24.2507 36.4545 24.0361 36.4218C23.2765 36.3399 22.5169 36.3398 21.7573 36.2907C21.6174 36.2406 21.4964 36.1491 21.4106 36.0286C21.4106 36.0286 21.5097 35.8484 21.5922 35.7993C22.3683 35.357 23.326 35.6191 24.1517 35.0949C25.6842 34.1359 27.5077 33.7417 29.3035 33.981C32.1106 34.3414 34.6205 33.1293 37.3121 33.031C37.4442 33.031 37.5597 32.8672 37.6753 32.7853C37.7909 32.7034 37.5267 32.5723 37.4111 32.5232C37.1422 32.4181 36.8577 32.3572 36.569 32.343C33.2665 32.5559 29.8484 31.6878 26.6615 33.0965H22.1041C22.0522 32.8476 21.908 32.6271 21.7001 32.4784C21.4922 32.3298 21.2357 32.264 20.9813 32.2938C20.4529 32.2938 19.9245 32.2938 19.33 32.2938C19.3455 32.1181 19.4239 31.9537 19.5512 31.8304C19.6785 31.7072 19.8461 31.6333 20.0235 31.6222C20.9978 31.5403 21.9885 31.5404 22.9793 31.5076C23.26 31.0653 23.8049 30.4265 23.6728 30.2791C23.0123 29.5911 23.1114 28.8048 22.8967 28.0349C22.7528 27.8878 22.5766 27.7758 22.3818 27.7076C22.187 27.6394 21.9789 27.6168 21.7739 27.6418C20.9924 28.0897 20.0999 28.311 19.1979 28.2806C16.7045 28.0513 14.5084 29.1652 12.1141 29.4109C11.7508 29.4109 11.4536 30.017 11.0078 29.4109C10.8096 29.1488 11.2554 28.5591 11.8664 28.2478C12.9216 27.6734 14.1149 27.3958 15.3175 27.4452C16.5325 27.4892 17.7489 27.4178 18.9502 27.2323C19.1576 27.1768 19.3498 27.0759 19.5127 26.937C19.6756 26.7981 19.805 26.6247 19.8914 26.4296C19.8914 26.2003 19.6438 25.7416 19.3465 25.5287C18.7686 25.1519 18.0916 24.9062 17.5136 24.5295C17.3981 24.5295 17.5136 23.8743 17.6292 23.8251C18.4771 23.6252 19.3102 23.368 20.1226 23.0552C21.9758 22.0768 24.0744 21.6502 26.1662 21.8267C26.7771 21.8267 27.4046 21.8267 28.0156 21.8267C28.8304 21.9024 29.6522 21.8026 30.4245 21.534C31.1969 21.2654 31.9016 20.8344 32.4904 20.2705C33.8863 19.2021 35.4965 18.4425 37.213 18.0428C38.2202 17.6497 39.5908 17.8954 39.9706 16.503C40.0696 16.159 40.9778 17.3876 41.3411 16.5849C42.596 13.7347 45.6508 13.1286 48.4084 12.2768C49.3826 11.982 50.3899 11.8182 51.3806 11.4906C52.5915 11.2864 53.8249 11.2478 55.0464 11.3759C55.9546 11.3759 56.7967 10.3767 57.7874 11.2121L59.4387 9.90168C60.1157 10.4914 60.6936 10.2948 61.3706 9.90168C62.0476 9.50854 62.6751 9.14818 63.0219 9.29561C64.1282 9.90169 64.9373 9.01714 65.8951 9.06628C68.4274 8.99129 70.9218 8.43523 73.2431 7.42823C73.6394 7.29718 73.7054 7.06785 73.5073 6.90404C73.3091 6.74023 73.2596 6.65834 73.144 6.65834C71.3063 6.51535 69.4589 6.55377 67.6289 6.77302C65.9776 7.11701 64.4255 7.37908 62.8568 7.80497C60.7267 8.39467 58.3819 8.50934 56.549 9.83617C56.1067 9.96268 55.6373 9.96268 55.195 9.83617C54.9638 9.83617 54.7657 9.55768 54.5675 9.41026C55.6321 8.0429 57.0972 7.03586 58.7617 6.5273C60.4129 6.1833 62.0642 5.98674 63.5833 5.60999C65.2032 5.201 66.8657 4.98111 68.537 4.95478C69.2892 5.02759 70.0485 4.94389 70.7662 4.70906C71.7485 4.30908 72.8125 4.14627 73.8706 4.23403C76.1162 4.23403 78.4115 4.46336 80.4755 3.46415C81.0782 3.32327 81.7057 3.32327 82.3084 3.46415C82.5066 3.46415 82.6717 3.74261 82.8533 3.89003C82.7377 3.89003 82.6056 4.13575 82.5065 4.13575C81.1856 3.92281 80.2609 4.79095 79.2041 5.0858C79.0389 5.0858 78.9399 5.39705 78.8243 5.56085C79.0853 5.67262 79.3561 5.76036 79.6334 5.82295C80.0848 5.92207 80.5525 5.92207 81.0039 5.82295C82.9887 5.08238 85.1194 4.80765 87.2291 5.02029C88.1208 5.02029 88.6822 4.82372 88.7317 3.93917C88.7317 3.59518 89.1115 3.51329 89.3757 3.72624C89.6602 3.95142 89.9909 4.1121 90.3446 4.19699C90.6983 4.28189 91.0665 4.28892 91.4232 4.21764C91.4232 3.8245 91.4233 3.38224 91.5719 3.10377C91.7205 2.82531 92.2984 2.72702 92.7112 2.66149C93.1732 2.63675 93.6363 2.63675 94.0983 2.66149C97.7805 2.66149 101.463 2.53045 105.145 2.66149C106.202 2.66149 107.209 1.72781 108.068 2.33389C108.926 2.93997 109.967 1.71143 110.924 2.33389C111.914 2.72908 112.995 2.84254 114.045 2.66149C116.043 2.66149 118.041 2.66149 120.039 2.75977C120.63 2.70668 121.225 2.79662 121.773 3.02187C122.417 3.44776 122.747 3.13653 123.292 2.93996C123.837 2.74339 124.217 3.61156 124.811 3.07101C125.406 2.53045 126.033 3.70985 126.776 3.07101C127.519 2.43217 128.543 2.80892 129.435 2.7434C130.327 2.67788 130.971 2.7434 131.73 2.7434H137.708C138.467 2.7434 139.359 2.92358 139.953 2.61235C141.522 1.66228 143.256 2.05542 144.907 2.02265C146.558 1.98989 148.556 2.13731 150.389 2.21921C151.116 3.13652 152.42 1.59677 153.114 2.69426C154.171 2.81669 155.237 2.84956 156.301 2.79254C157.489 2.6615 158.249 3.48053 159.322 3.54605C161.001 3.40908 162.689 3.62682 164.276 4.18489C165.647 4.84011 167.579 4.02108 169.015 5.15134C170.848 5.15134 172.664 5.15134 174.481 5.00392C174.613 5.00392 174.728 4.67629 174.861 4.44696H175.752C175.78 4.31176 175.838 4.18443 175.922 4.07412C176.006 3.96381 176.113 3.87328 176.236 3.80905C176.359 3.74482 176.495 3.70847 176.634 3.70265C176.773 3.69682 176.912 3.72168 177.04 3.77538C177.333 3.94464 177.662 4.0432 178.001 4.06312C178.339 4.08304 178.678 4.02374 178.989 3.89003C179.666 3.62794 180.343 2.80893 181.317 3.28396C182.291 3.759 182.968 2.87444 183.728 2.75977C185.627 2.51406 187.393 1.49847 189.342 2.75977C189.738 3.02186 190.531 2.75977 191.142 2.85805C192.529 2.85805 193.916 2.85807 195.286 2.95636C195.489 2.94928 195.687 3.01496 195.845 3.14134C196.003 3.26773 196.109 3.44633 196.145 3.64433C196.58 3.6689 197.015 3.6689 197.449 3.64433C198.927 3.6668 200.392 3.91543 201.792 4.38145C202.768 4.6131 203.684 5.04256 204.484 5.64276C204.91 5.94551 205.421 6.10831 205.945 6.10831C206.469 6.10831 206.98 5.94551 207.406 5.64276C208.397 5.0203 209.157 5.49533 209.058 6.51092C209.033 6.90914 209.033 7.30848 209.058 7.70669C209.079 7.9152 209.179 8.10782 209.339 8.24493C209.499 8.38204 209.705 8.45322 209.916 8.44381C210.676 8.44381 211.436 8.44381 212.195 8.44381C213.847 8.34519 215.504 8.38355 217.149 8.55849C218.705 8.95658 220.208 9.53957 221.624 10.2948C222.311 10.5569 223.017 10.765 223.737 10.9173C225.565 11.4146 227.353 12.0442 229.087 12.801C230.055 13.1545 231.078 13.3374 232.109 13.3416C232.145 13.5334 232.244 13.7081 232.39 13.8385C232.536 13.9688 232.722 14.0475 232.918 14.0623C233.348 14.1442 233.826 14.0623 234.272 14.177C234.404 14.177 234.503 14.3408 234.619 14.4227C234.47 14.5865 234.338 14.8158 234.124 14.8814C233.909 14.9469 233.513 14.8814 233.215 14.8814C232.938 14.944 232.667 15.0317 232.406 15.1434C232.522 15.3072 232.588 15.553 232.753 15.6185C234.097 16.2587 235.573 16.5785 237.063 16.5522C237.178 16.5522 237.311 16.6996 237.426 16.7815C237.261 16.9453 237.145 17.191 236.947 17.2402C235.511 17.5514 233.496 16.3884 232.77 18.5342C232.77 18.6816 232.258 18.7635 231.96 18.7963C231.504 18.8292 231.046 18.8292 230.59 18.7963C228.196 18.6489 225.636 19.3041 223.391 18.2885C223.209 18.2885 222.697 18.6816 222.35 18.9274C222.003 19.1731 222.003 19.4351 222.35 19.4843C223.695 19.4884 225.033 19.6702 226.33 20.0248C227.639 20.3666 228.988 20.5374 230.342 20.5326C230.788 20.6309 231.085 20.8275 231.118 21.237C227.37 21.1223 223.605 21.712 219.873 20.6145C217.677 19.9593 215.415 20.9585 213.268 21.3844C212.492 21.5319 213.087 21.9577 213.268 22.2198C213.45 22.4819 213.978 22.7604 214.193 23.1044C214.589 23.7432 213.929 23.6449 213.549 23.6941C213.169 23.7432 213.021 23.6941 212.757 23.6941C212.872 23.907 212.971 24.2182 213.103 24.2346C214.151 24.4516 215.223 24.5232 216.29 24.4476C217.38 24.2674 218.123 25.3977 219.18 24.8571C219.774 24.5459 219.989 24.7752 219.989 25.2502C219.979 25.3782 219.938 25.5018 219.869 25.6103C219.8 25.7188 219.705 25.8089 219.593 25.8727C219.031 26.0201 218.42 26.0529 217.826 26.1675C217.689 26.2144 217.572 26.307 217.496 26.4296C217.496 26.4296 217.611 26.6589 217.694 26.6589C218.437 26.7736 219.18 26.8228 219.923 26.9374C220.197 26.9792 220.461 27.0737 220.699 27.2159C220.6 27.6418 220.187 27.6745 219.758 27.6745C217.908 27.6745 216.059 27.6745 214.226 27.7565C214.094 27.7565 213.978 27.9039 213.863 27.9858C214.028 28.1496 214.177 28.4281 214.342 28.4281C216.158 28.4281 217.644 29.46 219.642 29.329C222.697 29.0996 225.801 29.329 228.873 29.329C229.285 29.329 230.062 29.5583 230.062 29.6729C230.062 31.0325 231.515 30.8687 232.307 31.311C233.1 31.7533 234.388 31.5567 235.428 31.6386C236.204 31.6386 236.98 31.6386 237.74 31.6386C238.499 31.6386 238.978 31.6386 239.589 31.6386C239.804 31.6386 239.986 31.8843 240.184 32.0317L239.622 32.6542C239.326 32.8889 238.983 33.0572 238.615 33.1477C238.247 33.2382 237.864 33.2486 237.492 33.1784C230.111 33.1784 222.73 33.1784 215.332 33.1784C212.664 33.2934 210.039 33.893 207.588 34.9475C207.468 35.0219 207.362 35.1161 207.274 35.226C207.383 35.3223 207.499 35.41 207.621 35.4881C207.754 35.5414 207.893 35.5798 208.034 35.6027C208.48 35.6027 208.942 35.6027 209.371 35.7338C209.506 35.7944 209.629 35.8775 209.735 35.9795C209.652 36.0777 209.57 36.2252 209.471 36.2415C208.727 36.351 207.977 36.4112 207.225 36.4218C206.086 36.4218 206.399 37.4046 205.871 37.7813C205.755 37.7813 205.392 37.6339 205.128 37.552C204.864 37.4701 204.467 37.208 204.335 37.2899C202.823 37.98 201.153 38.2571 199.497 38.0926C199.348 38.0926 199.216 38.3874 199.068 38.5348C199.183 38.6167 199.315 38.7642 199.431 38.7642C200.496 38.6368 201.575 38.6977 202.618 38.9443C203.996 39.5708 205.521 39.8089 207.027 39.6323C209.132 39.6556 211.221 40.0037 213.219 40.6643C213.941 40.835 214.652 41.0483 215.349 41.3031C216.436 41.8061 217.615 42.0816 218.814 42.1126C220.013 42.1436 221.206 41.9294 222.317 41.4833C222.748 41.3401 223.201 41.279 223.655 41.3031C225.189 41.2131 226.727 41.2131 228.262 41.3031C229.913 41.4505 231.168 40.566 232.671 40.5332C234.817 40.5332 236.98 40.5332 239.127 40.5332C239.503 40.5911 239.866 40.713 240.2 40.8936C239.949 41.032 239.675 41.1263 239.391 41.1721C237.542 41.1721 235.692 41.1721 233.843 41.2868C233.612 41.2868 233.397 41.5488 233.166 41.6799C233.281 41.7782 233.381 41.9092 233.513 41.942C234.748 42.4729 236.066 42.7887 237.41 42.8756C238.603 42.8695 239.791 43.052 240.927 43.4162C242.492 43.9162 244.11 44.2349 245.748 44.3663C248.671 44.3663 251.346 45.6767 254.302 45.3327C255.669 45.9773 257.186 46.2487 258.694 46.119C259.308 46.1546 259.89 46.3974 260.345 46.807C260.791 47.1182 261.254 47.3967 261.716 47.6915C261.864 48.6907 263.169 48.4287 263.714 49.0511C264.259 49.6736 264.292 49.7391 263.912 50.3452C263.532 50.9513 263.73 51.6393 264.622 51.7212C265.514 51.8031 266.141 51.8194 266.884 51.9505C267.033 51.9505 267.115 52.2781 267.231 52.491C265.579 52.6514 263.913 52.5907 262.277 52.3108C260.591 51.8753 258.936 51.3281 257.324 50.6728C256.026 49.9854 254.597 49.578 253.129 49.477C250.933 49.477 249.051 48.5761 246.921 48.4287C244.762 48.2085 242.65 47.6559 240.663 46.7906C239.094 47.0691 237.624 45.8242 235.973 46.6432C235.381 46.8238 234.748 46.8238 234.157 46.6432C233.348 46.4794 232.604 45.9224 231.762 46.5121C230.739 45.6439 229.847 46.119 228.889 46.6432C228.602 46.7092 228.3 46.6622 228.047 46.5121C226.396 45.5784 224.48 46.119 222.697 46.1026C222.218 46.1026 222.218 46.332 222.532 46.6432C222.846 46.9544 223.11 47.3148 222.433 47.4786C221.756 47.6424 220.567 47.2492 220.286 48.314C219.927 48.3833 219.556 48.3753 219.2 48.2905C218.844 48.2058 218.511 48.0462 218.222 47.8226C217.974 47.6096 217.677 47.6915 217.595 48.0519C217.554 48.1771 217.546 48.3107 217.572 48.4397C217.598 48.5687 217.657 48.689 217.743 48.789C218.074 49.0184 218.602 49.0511 218.932 49.2968C220.864 50.7711 220.864 50.8038 221.624 50.7875L227.634 50.7056C228.427 50.7056 228.674 50.2469 228.625 49.6572C228.575 49.0675 228.84 48.3631 229.847 48.3631H234.47C234.586 48.3631 234.817 48.5761 234.801 48.6088C234.784 48.6416 234.569 49.0675 234.437 49.0675L230.276 49.2149C230.111 49.2149 229.929 49.4934 229.814 49.6736C229.698 49.8538 229.946 49.9029 230.045 50.0012C230.415 50.4653 230.955 50.7656 231.548 50.8366C231.713 50.8366 231.894 51.0987 232.06 51.2461C231.944 51.328 231.812 51.4754 231.68 51.4754C230.916 51.549 230.148 51.549 229.385 51.4754C228.08 51.3444 227.287 52.5074 225.933 52.36C224.711 52.2044 223.474 52.2044 222.251 52.36C221.395 52.5616 220.564 52.8584 219.774 53.2445C219.675 53.2445 219.527 53.4575 219.543 53.4902C219.622 53.6142 219.746 53.7024 219.89 53.7359C221.838 53.8997 223.556 54.8662 225.636 54.686C227.717 54.5058 229.946 54.686 232.093 54.686C232.869 54.686 233.826 54.4567 234.371 54.7679C236.221 55.8163 238.252 55.3085 240.184 55.505C240.795 55.505 241.62 55.374 241.967 55.6689C243.338 56.7827 245.27 55.9473 246.723 56.8646C247.911 57.5853 249.662 56.8646 251.131 57.5854C252.601 58.3061 254.434 57.7983 256.085 57.9785C256.525 58.0296 256.951 58.1631 257.34 58.3716C258.199 58.863 259.14 58.6009 260.032 58.7156C260.923 58.8303 261.468 59.6984 262.542 59.5674C264.332 59.4674 266.11 59.9071 267.644 60.8287C268.889 61.5858 270.25 62.1388 271.673 62.4668C273.248 62.8792 274.847 63.1965 276.461 63.4168C277.935 63.6118 279.396 63.8907 280.837 64.2522C282.06 64.3997 283.297 64.3997 284.52 64.2522C286.039 64.0229 287.062 65.1859 288.466 65.0549C290.365 64.8911 291.967 65.8412 293.766 66.1032C293.932 66.1032 294.064 66.4964 294.146 66.7257C294.229 66.955 293.833 67.4956 293.304 67.4137C292.776 67.3318 292.066 66.9059 291.653 67.0861C290.943 67.4301 290.613 67.0861 290.101 66.8731C289.909 66.7538 289.683 66.699 289.457 66.7167C289.231 66.7344 289.017 66.8237 288.846 66.9714C288.4 67.3973 287.805 67.7085 287.195 67.3318C286.262 66.8113 285.184 66.6044 284.123 66.7421C283.859 66.7421 283.364 66.955 283.364 67.0369C283.364 67.4792 283.909 67.4792 284.305 67.5611C284.433 67.6079 284.543 67.6939 284.619 67.8068C284.486 67.987 284.321 68.2654 284.14 68.2818C283.38 68.2818 282.604 68.2819 281.845 68.3638C281.729 68.3638 281.498 68.5603 281.514 68.6095C281.531 68.6586 281.811 69.1172 281.878 69.1009C283.265 68.6913 284.074 69.9854 285.329 69.9363C287.211 69.9363 289.093 69.8052 289.721 71.9347C289.721 72.1804 290.48 72.2787 290.86 72.4752C292.412 73.2779 293.965 74.1133 295.484 74.916C296.177 75.3091 295.484 75.6367 295.253 75.8005C294.756 76.0829 294.237 76.324 293.7 76.5212C293.37 76.6686 293.403 76.8488 293.7 77.1273C293.954 77.3973 294.26 77.6124 294.601 77.759C294.942 77.9056 295.31 77.9805 295.682 77.9791C297.234 77.9791 297.218 77.9791 297.911 79.1094C298.161 79.4516 298.449 79.7647 298.77 80.043C298.951 80.2396 299.183 80.4362 299.364 80.6491C299.393 80.7397 299.393 80.837 299.364 80.9276C299.1 81.0259 298.737 81.2224 298.539 81.1241C298.162 80.9575 297.754 80.8713 297.341 80.8713C296.929 80.8713 296.521 80.9575 296.144 81.1241C293.915 81.8121 296.425 82.4673 296.045 83.2208C295.665 83.9743 295.764 84.2528 294.708 84.4658C294.559 84.4658 294.394 84.4658 294.245 84.4658L293.42 84.7443C293.585 84.8917 293.733 85.1538 293.915 85.1865C294.663 85.1971 295.4 85.3645 296.078 85.6779C296.611 85.9522 297.203 86.0954 297.804 86.0954C298.404 86.0954 298.996 85.9522 299.529 85.6779C299.909 85.5141 300.404 85.1865 300.487 85.7599C300.619 86.8246 301.891 87.1686 302.221 88.0367C302.323 88.2806 302.376 88.5423 302.376 88.8066C302.376 89.0709 302.323 89.3326 302.221 89.5765C301.907 90.1662 301.263 89.9697 300.669 89.7076C300.148 89.4663 299.59 89.3166 299.017 89.2653C297.961 89.2653 297.944 88.5445 297.647 87.9548C297.564 87.791 297.234 87.7091 296.986 87.5945C296.64 86.5134 295.632 86.8409 294.807 86.9065C294.361 86.9065 294.361 87.1522 294.559 87.4306C294.808 87.7329 294.973 88.0942 295.038 88.479C295.038 88.9377 294.609 89.0851 294.179 89.2489C293.75 89.4127 293.023 89.3799 293.783 89.9205C294.29 90.1932 294.814 90.434 295.352 90.6412C295.864 90.9033 296.243 91.8042 295.963 91.9844C295.6 92.1937 295.203 92.3379 294.79 92.4103C293.288 92.7052 293.139 92.7543 293.139 93.8354C293.089 94.227 293.089 94.6233 293.139 95.0148C293.139 95.2442 293.519 95.6373 293.634 95.6209C295.649 95.2605 295.946 96.9641 296.937 97.734C296.978 97.7915 297.033 97.8383 297.096 97.8707C297.159 97.903 297.229 97.9199 297.3 97.9199C297.371 97.9199 297.441 97.903 297.505 97.8707C297.568 97.8383 297.622 97.7915 297.663 97.734C298.307 96.9477 298.737 98.4711 299.463 97.8323C300.19 97.1934 300.603 98.1763 301.114 98.4056C301.626 98.6349 301.874 98.7824 302.237 98.9625C302.402 99.585 303.063 99.6178 303.542 99.8799C304.021 100.142 303.955 100.551 304.004 100.912C304.054 101.272 303.591 101.354 303.36 101.354C301.998 101.564 300.608 101.514 299.265 101.207C297.666 100.699 295.989 100.478 294.311 100.551C293.404 100.619 292.496 100.438 291.686 100.027C291.686 100.027 291.372 100.027 291.356 100.142C291.339 100.257 291.125 100.682 291.24 100.879C291.441 101.257 291.73 101.583 292.082 101.829C292.842 102.353 292.677 102.779 292.198 103.467C291.719 104.155 292.198 104.483 292.957 104.647C293.232 104.744 293.493 104.877 293.733 105.04C293.513 105.208 293.26 105.331 292.99 105.4C292.082 105.498 291.224 105.4 291.058 106.596C291.058 107.12 290.035 107.546 289.539 108.054C289.044 108.562 288.615 108.25 288.02 108.054C286.612 107.621 285.171 107.304 283.71 107.104C283.132 107.022 281.498 106.629 282.538 108.168C282.538 108.168 282.241 108.578 282.043 108.594C281.432 108.594 280.821 108.594 280.193 108.594C279.929 108.594 279.45 108.774 279.45 108.889C279.45 109.364 279.929 109.315 280.309 109.446C280.689 109.577 280.788 110.069 280.309 110.134C279.83 110.2 278.971 110.445 278.839 110.92C278.41 112.46 276.775 112.689 275.537 113.394C275.173 113.623 274.761 113.771 274.381 113.983C274.001 114.196 273.968 114.573 274.876 115.163C275.784 115.753 274.876 115.671 274.563 115.818C274.249 115.966 273.489 115.818 274.034 116.522C274.331 116.866 274.463 117.161 274.034 117.522C273.648 117.882 273.164 118.123 272.643 118.216C272.121 118.309 271.583 118.25 271.095 118.046C270.55 117.833 270.121 117.407 269.79 118.292C269.538 118.786 269.163 119.209 268.701 119.52C267.049 120.798 267.049 120.781 268.172 122.059C268.37 122.272 268.585 122.452 268.767 122.665C268.838 122.784 268.877 122.92 268.88 123.059C268.883 123.198 268.85 123.335 268.783 123.457C268.716 123.579 268.619 123.682 268.5 123.756C268.382 123.829 268.246 123.871 268.106 123.877C267.215 123.877 266.158 124.205 265.448 123.648C264.457 122.878 263.631 124.287 263.004 123.779C261.633 122.632 259.701 123.435 258.248 122.55C257.472 122.092 256.168 122.37 255.111 122.239C254.054 122.108 253.295 121.322 252.106 121.453C250.917 121.584 249.893 121.273 248.886 121.453C247.878 121.633 246.739 120.618 245.583 121.142C245.27 121.289 245.104 121.24 244.939 120.896C244.774 120.552 244.592 120.012 244.279 119.913C243.585 119.717 242.76 119.913 242.116 119.422C241.472 118.93 240.332 119.176 239.457 118.98C238.582 118.783 238.103 118.439 237.377 118.275C236.804 118.173 236.214 118.29 235.725 118.603C235.22 118.935 234.632 119.123 234.027 119.146C233.421 119.17 232.82 119.027 232.291 118.734C231.217 118.029 229.814 118.586 228.889 117.685C228.41 117.194 227.75 117.489 227.238 117.849C226.726 118.21 226.61 118.144 226.561 117.849C226.214 115.818 224.447 115.753 222.73 115.834C221.558 115.834 220.782 115.114 219.708 115.065C218.635 115.015 217.248 115.065 216.026 115.065C215.465 115.065 215.2 114.147 214.49 114.606C214.06 114.914 213.543 115.079 213.012 115.079C212.482 115.079 211.965 114.914 211.535 114.606C211.3 114.42 211.009 114.318 210.709 114.318C210.409 114.318 210.118 114.42 209.883 114.606C209.237 115.015 208.456 115.161 207.704 115.015C207.128 115.016 206.561 114.875 206.053 114.606C205.326 114.131 204.831 115.359 204.088 114.606C203.344 113.852 203.13 114.999 202.568 114.983C202.403 114.983 202.189 114.983 202.106 114.983C201.016 114.016 199.365 114.606 198.275 114.033C196.844 113.512 195.322 113.284 193.8 113.361C193.656 113.326 193.525 113.252 193.421 113.148C192.215 112.247 190.779 112.689 189.441 112.64C188.07 113.607 186.304 113.443 184.735 113.852C179.649 115.228 176.479 116.146 172.863 115.834C171.938 115.753 171.013 115.834 170.088 115.834C169.354 115.927 168.63 116.086 167.925 116.31C165.415 116.686 162.972 117.735 160.379 117.456C159.148 117.374 157.912 117.374 156.68 117.456C155.32 117.368 153.956 117.574 152.684 118.062C151.494 118.334 150.267 118.411 149.052 118.292C148.609 118.33 148.181 118.464 147.797 118.685C146.657 119.324 145.336 118.783 144.213 119.127C143.091 119.471 141.77 120.143 140.515 120.601C140.054 120.659 139.588 120.659 139.128 120.601C138.519 120.543 137.905 120.587 137.311 120.732C136.155 121.289 135.214 121.912 134.587 120.208C134.389 119.668 133.414 119.799 132.936 119.946C131.98 120.378 130.947 120.612 129.897 120.634C128.247 120.555 126.627 121.093 125.356 122.141C124.465 122.78 123.705 123.419 122.632 122.501C120.782 123.081 118.829 123.265 116.902 123.042C115.852 122.954 114.802 123.225 113.93 123.812C112.609 123.501 111.519 124.877 110.627 124.5C109.736 124.123 108.893 124.631 108.332 124.303C107.275 123.681 106.796 124.811 105.888 124.664C104.98 124.516 103.725 124.664 102.586 124.664C101.692 124.679 100.819 124.933 100.059 125.401C99.052 125.876 97.8961 124.647 97.2191 125.073C96.5421 125.499 95.5679 124.303 94.8909 125.188C94.7588 125.352 93.9166 124.958 93.4543 125.024C92.8681 125.131 92.3077 125.348 91.803 125.663C90.9774 126.22 90.5316 126.203 90.383 125.204C90.318 125.081 90.2241 124.975 90.1091 124.895C89.9942 124.815 89.8616 124.764 89.7225 124.745C88.2033 124.745 86.5356 124.27 85.2146 124.975C84.2734 125.483 83.167 124.287 82.523 125.417H79.2206H75.5218H58.4149C57.5004 125.466 56.5835 125.389 55.6904 125.188C54.551 124.876 53.5107 124.27 52.3879 123.894C51.265 123.517 50.2082 124.844 48.9038 124.582C48.5964 124.549 48.2864 124.549 47.9791 124.582C44.5775 124.582 41.1925 124.582 37.8074 124.582C37.5117 124.546 37.2226 124.469 36.9488 124.352C37.177 124.023 37.443 123.72 37.7414 123.451C38.6661 122.763 40.2678 123.451 41.0439 122.305C41.0439 122.223 41.6548 122.305 41.886 122.419C44.1977 123.632 46.6911 122.845 49.1019 122.894C49.7624 122.894 50.4559 122.354 51.1164 122.059C51.4962 121.895 51.4797 121.633 51.1164 121.535C49.9441 121.306 48.9368 120.093 47.6984 120.749C46.2853 121.313 44.7574 121.538 43.24 121.404C41.8733 121.308 40.4997 121.407 39.1614 121.699C37.8555 122.09 36.4963 122.277 35.1324 122.256C34.3563 122.256 33.5967 122.256 32.8372 122.37C32.3748 122.37 32.5069 122.616 32.573 122.911C32.7711 123.795 32.3913 124.123 31.6978 123.713C30.9416 123.23 30.0537 122.99 29.1549 123.026C27.7679 123.026 26.3808 123.026 24.9938 123.026C24.5314 123.026 24.0691 123.026 23.6067 123.026C23.4746 123.026 23.359 122.862 23.2435 122.796C23.3966 122.641 23.5623 122.499 23.7388 122.37C23.8544 122.37 24.0526 122.37 24.2012 122.37C24.6305 122.272 25.0433 122.141 25.4726 122.026C25.1259 121.633 24.8782 121.109 24.4324 120.863C23.6638 120.416 22.8274 120.095 21.9555 119.913C20.7666 119.717 21.3115 118.029 19.7924 118.161C19.3961 118.161 19.3465 117.833 19.7098 117.669C19.8417 117.606 19.9801 117.556 20.1226 117.522C21.1794 117.358 21.1134 116.653 21.0968 115.982C21.0803 115.31 20.5189 115.097 19.8584 115.114C18.8011 115.206 17.7418 114.959 16.8366 114.409C16.2758 114.212 15.6636 114.212 15.1028 114.409C14.3743 114.546 13.6859 114.842 13.0883 115.278C12.0976 116.162 11.4371 114.786 10.6445 115.114C9.85188 115.441 9.34 116.113 8.61346 115.589C8.08997 115.166 7.70962 114.594 7.52363 113.951C7.38768 113.549 7.15127 113.188 6.83651 112.902C6.52175 112.615 6.13892 112.412 5.72378 112.313C5.39353 112.313 5.65773 111.346 6.18613 111.395ZM30.6741 30.2791C30.8694 30.1188 31.0935 29.9965 31.3345 29.9187C31.1168 30.0037 30.9156 30.1256 30.7401 30.2791H30.6741ZM37.956 37.1261C39.6073 37.0442 41.4401 37.5356 42.9923 36.4872C43.1284 36.5329 43.2565 36.5992 43.3721 36.6838C43.2534 36.5998 43.1261 36.5285 42.9923 36.4709C41.5062 37.5356 39.7229 37.0442 38.0221 37.1261H37.956ZM247.416 61.4348C247.317 61.4348 247.234 61.5822 247.135 61.6641C247.268 61.533 247.4 61.4348 247.499 61.4348H247.416ZM245.765 61.4348C245.765 61.4348 245.897 61.5986 245.88 61.6477C245.864 61.6969 245.798 61.5167 245.765 61.4348C245.732 61.3529 245.55 61.4348 245.484 61.4348C245.418 61.4348 245.732 61.5331 245.831 61.5331L245.765 61.4348Z" fill="url(#paint1_linear_60_4177)"/>
<path d="M291.922 62.8089C291.803 62.8904 291.668 62.9461 291.525 62.9722C290.749 62.9722 289.742 63.2496 289.264 62.9722C287.897 62.3088 286.371 62.032 284.855 62.1724C284.41 62.1724 283.799 62.2704 283.518 62.0745C282.082 60.981 280.216 61.8787 278.697 61.1605C277.1 60.6482 275.416 60.4594 273.744 60.6056C272.865 60.508 272.01 60.2594 271.218 59.8711C270.017 59.2376 268.664 58.9386 267.305 59.006C265.961 59.1054 264.617 58.8282 263.425 58.2063C261.131 57.1076 258.611 56.5489 256.061 56.5742C255.616 56.59 255.171 56.5404 254.741 56.4272C254.394 56.3456 254.41 56.1008 254.741 55.8397C255.517 55.1378 254.113 54.8114 254.344 54.2075C255.406 54.1503 256.47 54.1503 257.531 54.2075C258.555 54.3381 259.529 54.7624 260.552 54.9093C261.576 55.0562 262.715 54.9093 263.772 55.0562C264.333 55.0562 265.043 55.7907 265.423 55.6438C266.024 55.4329 266.667 55.3673 267.299 55.4525C267.931 55.5377 268.533 55.7712 269.055 56.1334C269.738 56.476 270.507 56.6123 271.267 56.5252C273.331 56.2151 275.048 57.4229 277.013 57.4392C277.899 58.0303 278.976 58.2746 280.034 58.1247C282.431 58.1971 284.8 58.6489 287.051 59.463C288.49 59.7274 289.824 60.3895 290.898 61.3726C291.203 61.6771 291.528 61.9607 291.872 62.2214C292.136 62.4662 292.186 62.6457 291.922 62.8089Z" fill="url(#paint2_linear_60_4177)"/>
<path d="M245.231 53.4399C245.379 53.4399 245.594 53.701 245.776 53.8479C245.66 53.8479 245.528 54.0601 245.412 54.0601H230.834C230.718 54.0601 230.57 53.9132 230.504 53.8153C230.438 53.7174 230.619 53.5705 230.702 53.5541C231.858 53.3256 232.716 52.4932 234.004 52.5748C235.836 52.6891 237.669 52.5748 239.485 52.5748C241.301 52.5748 243.2 53.75 245.231 53.4399Z" fill="url(#paint3_linear_60_4177)"/>
<path d="M26.7346 70.1539H26.8339H26.7512C26.7512 70.1539 26.7346 70.1864 26.7346 70.1539Z" fill="url(#paint4_linear_60_4177)"/>
<path d="M22.5081 70.9696C21.2698 70.9696 20.857 71.9653 19.916 72.4223C19.6391 72.5113 19.3483 72.55 19.0574 72.5365C18.5952 72.5365 18.8098 72.2101 19.14 71.6388C20.048 70.0883 22.0953 70.4963 23.3831 69.6639C24.2151 69.3075 25.1402 69.2218 26.0248 69.4191C26.1202 69.4212 26.2142 69.4419 26.3015 69.48C26.3888 69.518 26.4677 69.5727 26.5336 69.6409C26.5996 69.7091 26.6513 69.7895 26.6858 69.8774C26.7202 69.9654 26.7369 70.0592 26.7347 70.1535C25.1827 69.8761 23.961 70.9206 22.5081 70.9696Z" fill="url(#paint5_linear_60_4177)"/>
<path d="M262.55 38.8323H262.715V38.9629H262.6L262.55 38.8323Z" fill="url(#paint6_linear_60_4177)"/>
<path d="M260.106 38.5232C259.554 38.0402 258.907 37.675 258.205 37.4503C257.503 37.2257 256.762 37.1464 256.028 37.2175C255.931 37.2249 255.833 37.2113 255.742 37.1778C255.65 37.1443 255.567 37.0917 255.498 37.0235C255.429 36.9553 255.376 36.8731 255.342 36.7826C255.308 36.6922 255.295 36.5955 255.302 36.4994C256.322 36.3853 257.352 36.3853 258.373 36.4994C260.024 36.8421 261.807 37.2338 262.55 38.8497C261.708 38.8497 260.767 39.1108 260.106 38.5232Z" fill="url(#paint7_linear_60_4177)"/>
<path d="M16.0032 122.545C16.9056 123.084 17.9582 123.324 19.0081 123.231C19.9023 123.242 20.7952 123.302 21.6828 123.41C21.7818 123.41 21.8479 123.573 21.9469 123.655C22.046 123.737 21.6992 123.867 21.5672 123.867C19.9161 123.867 18.2651 123.965 16.6141 123.867C16.1881 123.8 15.7886 123.619 15.4584 123.345C15.2307 123.183 15.0442 122.97 14.9136 122.725C14.8145 122.545 15.6565 122.268 16.0032 122.545Z" fill="url(#paint8_linear_60_4177)"/>
<path d="M0.252449 105.898C0.35151 105.654 1.25957 105.539 1.40816 105.751C1.78789 106.306 2.11808 106.878 2.44828 107.384V107.645C2.02664 107.755 1.5955 107.826 1.16049 107.857C1.01006 107.883 0.85564 107.874 0.709241 107.831C0.562842 107.788 0.428428 107.712 0.316539 107.61C0.20465 107.507 0.118317 107.38 0.0642355 107.239C0.0101537 107.098 -0.010205 106.946 0.00478111 106.796C0.0656298 106.491 0.148406 106.191 0.252449 105.898Z" fill="url(#paint9_linear_60_4177)"/>
<path d="M262.533 126.153C262.863 125.957 263.243 125.631 263.507 126.153C263.557 126.279 263.557 126.419 263.507 126.545C263.431 126.744 263.287 126.91 263.101 127.017C262.914 127.124 262.697 127.165 262.484 127.132C261.741 127.132 260.981 127.132 260.238 126.985C260.106 126.985 260.04 126.61 259.941 126.381C260.783 126.316 261.724 126.659 262.533 126.153Z" fill="url(#paint10_linear_60_4177)"/>
<path d="M267.338 52.5748H267.239C267.239 52.5748 267.239 52.5748 267.239 52.4938H267.354C267.354 52.4938 267.338 52.5424 267.338 52.5748Z" fill="url(#paint11_linear_60_4177)"/>
<path d="M271.135 52.6083C271.321 52.6082 271.499 52.6799 271.632 52.8081C271.764 52.9362 271.841 53.1105 271.845 53.2938C270.574 53.2938 269.286 53.2938 268.015 53.2938C267.923 53.2939 267.832 53.2756 267.748 53.2399C267.664 53.2043 267.587 53.152 267.524 53.0864C267.461 53.0208 267.412 52.9431 267.38 52.8581C267.348 52.7731 267.333 52.6826 267.338 52.592C268.609 52.5757 269.881 52.543 271.135 52.6083Z" fill="url(#paint12_linear_60_4177)"/>
<path d="M86.1054 4.28079C85.755 4.25852 85.417 4.14382 85.1266 3.94863C84.8362 3.75344 84.6041 3.48487 84.4543 3.17091C84.4543 3.17091 84.8671 2.79553 84.9992 2.82817C85.6596 3.02403 86.287 3.30147 86.9309 3.5463C86.9343 3.6508 86.9145 3.75479 86.8731 3.85098C86.8316 3.94717 86.7694 4.03324 86.6908 4.10319C86.6121 4.17314 86.519 4.22526 86.4179 4.25593C86.3168 4.28661 86.2101 4.2951 86.1054 4.28079Z" fill="url(#paint13_linear_60_4177)"/>
<path d="M86.8647 3.54616H86.9968V3.65954L86.8647 3.54616Z" fill="url(#paint14_linear_60_4177)"/>
<path d="M257.663 125.695C258.389 125.695 259.116 125.695 259.842 125.695C259.842 125.957 259.842 126.201 259.842 126.446C259.708 126.464 259.576 126.491 259.446 126.528C259.066 126.691 258.67 127.05 258.356 127.001C258.043 126.952 257.68 126.512 257.366 126.234C257.052 125.957 257.25 125.728 257.663 125.695Z" fill="url(#paint15_linear_60_4177)"/>
<path d="M297.75 93.1186C297.64 93.2124 297.51 93.2795 297.37 93.3145C297.18 93.1593 297.028 92.9641 296.924 92.7432C296.874 92.4789 296.874 92.2078 296.924 91.9435C296.924 91.209 297.089 91.1764 297.997 91.6171C298.228 91.7236 298.465 91.8163 298.707 91.8945C298.707 92.4984 298.129 92.7596 297.75 93.1186Z" fill="url(#paint16_linear_60_4177)"/>
<path d="M55.0829 0.950434C54.9429 0.906152 54.8137 0.83395 54.7031 0.738271C54.8071 0.638268 54.9307 0.560488 55.0664 0.50977C55.3439 0.423732 55.6342 0.385083 55.9249 0.395507C56.3486 0.475641 56.7676 0.579177 57.1797 0.705621L56.1395 1.08101C55.6277 1.01572 55.3635 1.01572 55.0829 0.950434Z" fill="url(#paint17_linear_60_4177)"/>
<path d="M12.5856 45.5905C12.6095 45.6592 12.6095 45.7339 12.5856 45.8027C12.3215 45.9006 12.0408 45.9659 11.6115 46.0801C11.1823 46.1944 10.8851 45.9332 10.4558 45.819C10.4558 45.819 10.4558 45.6394 10.4558 45.5905C10.7864 45.4268 11.151 45.3415 11.5207 45.3415C11.8904 45.3415 12.2551 45.4268 12.5856 45.5905Z" fill="url(#paint18_linear_60_4177)"/>
<path d="M231.28 21.2541H231.147C231.147 21.2541 231.147 21.2541 231.147 21.1569H231.247C231.247 21.1569 231.28 21.2217 231.28 21.2541Z" fill="url(#paint19_linear_60_4177)"/>
<path d="M233.657 21.7435C233.657 21.7435 233.443 21.972 233.327 21.9557C232.568 21.9557 231.544 22.2984 231.28 21.2538C231.973 21.2538 232.667 21.2538 233.36 21.2538C233.476 21.3028 233.608 21.5803 233.657 21.7435Z" fill="url(#paint20_linear_60_4177)"/>
<path d="M212.937 117.095C213.038 117.037 213.151 117.004 213.267 116.997C213.379 117.181 213.478 117.372 213.564 117.568C213.564 118.123 213.267 118.303 212.821 118.335C212.555 118.313 212.294 118.252 212.045 118.156C212.088 117.946 212.172 117.746 212.293 117.568C212.487 117.385 212.704 117.226 212.937 117.095Z" fill="url(#paint21_linear_60_4177)"/>
<path d="M87.4923 125.712C87.8167 125.692 88.142 125.692 88.4664 125.712C88.5702 125.694 88.6763 125.694 88.7801 125.712C89.0443 125.81 89.2754 125.94 89.5231 126.054C89.3249 126.185 89.1268 126.397 88.9122 126.43C88.4799 126.495 88.0402 126.495 87.6079 126.43C87.4263 126.43 87.2942 126.136 87.1621 125.957C87.2445 125.844 87.3597 125.758 87.4923 125.712Z" fill="url(#paint22_linear_60_4177)"/>
<path d="M26.6359 52.4618C26.4439 52.346 26.2617 52.215 26.0911 52.0701C26.2066 51.9885 26.3057 51.8415 26.4213 51.8415C26.9826 51.8415 27.5274 51.8415 28.0723 51.8415C28.1879 51.8415 28.2869 52.0048 28.4025 52.0701C28.2374 52.217 28.1053 52.4291 27.9072 52.4781C27.6225 52.5192 27.3333 52.5192 27.0487 52.4781C26.9331 52.4781 26.7515 52.5271 26.6359 52.4618Z" fill="url(#paint23_linear_60_4177)"/>
<path d="M301.993 94.1463C301.894 94.0647 301.712 93.9831 301.696 93.8852C301.605 93.4059 301.556 92.92 301.547 92.4326C301.547 92.3347 301.894 92.2204 302.108 92.1061C302.329 92.3409 302.464 92.641 302.494 92.9598C302.524 93.2785 302.446 93.5981 302.274 93.8688C302.224 93.9831 302.092 94.0647 301.993 94.1463Z" fill="url(#paint24_linear_60_4177)"/>
<path d="M206.778 4.36126C206.465 4.27965 206.052 4.18175 205.639 4.05117C205.639 4.05117 205.639 3.85532 205.639 3.82267C205.959 3.64541 206.32 3.55231 206.688 3.55231C207.055 3.55231 207.416 3.64541 207.736 3.82267C207.736 3.82267 207.736 4.05116 207.736 4.06749C207.736 4.08381 207.191 4.23069 206.778 4.36126Z" fill="url(#paint25_linear_60_4177)"/>
<path d="M251.835 53.8483C251.818 53.8124 251.81 53.7735 251.81 53.7341C251.81 53.6947 251.818 53.6557 251.835 53.6198C252.243 53.524 252.656 53.4532 253.073 53.4077C253.684 53.4077 254.163 53.5056 254.245 54.1095C253.535 54.1095 252.825 54.1095 252.132 54.1095C252.099 54.0605 251.934 53.93 251.835 53.8483Z" fill="url(#paint26_linear_60_4177)"/>
<path d="M305.955 98.7655C305.84 98.8471 305.757 98.9777 305.625 99.0267C305.501 99.087 305.365 99.118 305.226 99.1172C305.088 99.1164 304.952 99.0838 304.829 99.0221C304.705 98.9603 304.598 98.8711 304.516 98.7614C304.433 98.6518 304.378 98.5247 304.354 98.3901L304.684 97.7046L305.955 98.7655Z" fill="url(#paint27_linear_60_4177)"/>
<path d="M233.707 120.832C234.334 120.832 234.763 120.995 234.846 121.567H232.766C232.632 121.521 232.517 121.436 232.435 121.322C232.435 121.322 232.435 121.11 232.435 121.093C232.853 120.981 233.278 120.894 233.707 120.832Z" fill="url(#paint28_linear_60_4177)"/>
<path d="M225.517 117.977C225.161 118.108 224.797 118.217 224.428 118.303C224.345 118.303 224.213 118.026 224.114 117.862L224.84 117.634L225.517 117.977Z" fill="url(#paint29_linear_60_4177)"/>
<path d="M14.3521 120.065C14.7441 120.149 15.1301 120.258 15.5078 120.391L14.8474 120.783L14.0549 120.538C14.22 120.358 14.3521 120.065 14.3521 120.065Z" fill="url(#paint30_linear_60_4177)"/>
<path d="M34.7752 124.113C35.1915 124.154 35.605 124.219 36.0135 124.309C35.7729 124.486 35.5054 124.623 35.221 124.717C34.9635 124.696 34.7119 124.63 34.478 124.521C34.5771 124.374 34.6926 124.097 34.7752 124.113Z" fill="url(#paint31_linear_60_4177)"/>
<path d="M174.716 4.29692H174.831C174.822 4.32322 174.822 4.35161 174.831 4.37791C174.831 4.37791 174.716 4.32931 174.716 4.29692Z" fill="url(#paint32_linear_60_4177)"/>
<path d="M173.28 3.79025C173.379 3.70325 173.498 3.6416 173.626 3.61071C174.27 3.52911 174.65 3.74128 174.716 4.29622C174.326 4.32908 173.934 4.32908 173.544 4.29622C173.428 4.23093 173.329 3.95347 173.28 3.79025Z" fill="url(#paint33_linear_60_4177)"/>
<path d="M222.86 25.3015C223.132 25.3589 223.394 25.4581 223.636 25.5953L222.893 25.9381L222.1 25.628C222.381 25.5137 222.595 25.3015 222.86 25.3015Z" fill="url(#paint34_linear_60_4177)"/>
<path d="M20.9561 33.9852C20.824 33.9852 20.6094 33.8383 20.6259 33.8057C20.6424 33.7731 20.758 33.3487 20.8735 33.3324C21.2639 33.3077 21.6554 33.3077 22.0458 33.3324C22.0128 33.8438 21.6495 34.0614 20.9561 33.9852Z" fill="url(#paint35_linear_60_4177)"/>
<path d="M9.05234 39.6321C8.8212 39.6321 8.62308 39.4199 8.40845 39.3057C8.63959 39.1914 8.85423 38.9793 9.08537 38.9629C9.31651 38.9466 9.77881 39.0772 9.79532 39.1751C9.86136 39.6321 9.39906 39.6648 9.05234 39.6321Z" fill="url(#paint36_linear_60_4177)"/>
<path d="M15.376 44.7907C15.4751 45.2803 15.0128 45.264 14.6661 45.2314C14.4228 45.1643 14.1896 45.0656 13.9727 44.9376C14.1759 44.7806 14.4049 44.6592 14.6496 44.5785C14.8972 44.5622 15.343 44.6764 15.376 44.7907Z" fill="url(#paint37_linear_60_4177)"/>
<path d="M19.074 46.9122C18.9584 46.9122 18.8593 46.6347 18.8098 46.4715C18.9044 46.3784 19.0253 46.3158 19.1565 46.2919C19.7674 46.2103 20.1967 46.3736 20.2627 46.9611C19.8658 46.9778 19.4681 46.9614 19.074 46.9122Z" fill="url(#paint38_linear_60_4177)"/>
<path d="M221.373 48.5435C221.737 48.6251 221.819 48.8536 221.621 49.0169C221.529 49.1159 221.408 49.1844 221.274 49.2127C220.63 49.2127 220.234 49.0821 220.168 48.5109C220.57 48.4891 220.973 48.5 221.373 48.5435Z" fill="url(#paint39_linear_60_4177)"/>
<path d="M220.168 48.544H220.053C220.053 48.544 220.053 48.5441 220.053 48.4631L220.168 48.544Z" fill="url(#paint40_linear_60_4177)"/>
<path d="M299.846 84.2882C299.665 83.9617 299.516 83.619 299.945 83.3416C299.945 83.3416 300.144 83.3416 300.243 83.3416C300.342 83.3416 300.523 83.7659 300.507 83.9781C300.49 84.1902 300.259 84.3698 300.127 84.582C300.024 84.4929 299.931 84.3945 299.846 84.2882Z" fill="url(#paint41_linear_60_4177)"/>
<path d="M298.328 83.2277C298.476 83.4398 298.724 83.6357 298.724 83.8479C298.724 84.0601 298.493 84.2722 298.361 84.4844L297.948 83.8969L298.328 83.2277Z" fill="url(#paint42_linear_60_4177)"/>
<path d="M18.0341 85.6105C18.1599 85.6769 18.2765 85.7592 18.3809 85.8553C18.2767 85.9563 18.1603 86.044 18.0341 86.1164C17.6379 86.2633 17.2086 86.3939 16.8784 86.0022C16.8784 86.0022 16.8784 85.8389 16.8784 85.8063C17.1921 85.333 17.6544 85.4799 18.0341 85.6105Z" fill="url(#paint43_linear_60_4177)"/>
<path d="M296.544 89.2334C296.346 89.1354 296.049 89.0212 296.016 88.8743C295.884 88.303 296.181 87.9766 296.842 87.9277C296.842 88.2704 296.842 88.6295 296.842 88.9886C296.825 89.0702 296.676 89.2497 296.544 89.2334Z" fill="url(#paint44_linear_60_4177)"/>
<path d="M300.54 92.613C300.54 92.8415 300.54 93.217 300.309 93.2822C299.682 93.5271 299.698 93.0537 299.665 92.7273C299.64 92.4886 299.64 92.2479 299.665 92.0092C300.144 91.9439 300.491 92.1397 300.54 92.613Z" fill="url(#paint45_linear_60_4177)"/>
<path d="M255.962 126.137L255.665 126.251L255.351 126.039L255.648 125.794L255.962 126.137Z" fill="url(#paint46_linear_60_4177)"/>
<path d="M58.4839 0.607212C58.5664 0.607212 58.682 0.492965 58.7481 0.509286C58.8619 0.558845 58.9676 0.624845 59.0618 0.705137L58.4839 0.835712V0.607212Z" fill="url(#paint47_linear_60_4177)"/>
<path d="M135.488 1.83246C135.141 1.70189 135.091 1.50602 135.323 1.35912C135.554 1.21223 135.521 1.35912 135.62 1.35912C135.719 1.35912 135.768 1.52234 135.752 1.58763C135.735 1.65291 135.537 1.84879 135.488 1.83246Z" fill="url(#paint48_linear_60_4177)"/>
<path d="M178.034 2.59829C177.935 2.59829 177.82 2.4514 177.704 2.36979C177.589 2.28818 177.902 2.0923 178.001 2.0923C178.1 2.0923 178.232 2.23921 178.348 2.33714C178.464 2.43507 178.15 2.58197 178.034 2.59829Z" fill="url(#paint49_linear_60_4177)"/>
<path d="M86.9971 3.4639C87.0305 3.27245 87.1227 3.0958 87.2612 2.95794C87.5089 2.81105 87.74 2.95794 87.5749 3.2354C87.4098 3.51287 87.2117 3.39862 86.9971 3.4639Z" fill="url(#paint50_linear_60_4177)"/>
<path d="M53.1512 10.6285C53.0522 10.6285 52.9366 10.4816 52.821 10.4L53.1347 10.1062L53.4649 10.3673C53.3659 10.4652 53.2668 10.6285 53.1512 10.6285Z" fill="url(#paint51_linear_60_4177)"/>
<path d="M232.782 12.8809C232.617 12.9987 232.423 13.0718 232.221 13.0931C232.221 12.9136 232.336 12.7014 232.485 12.6035C232.633 12.5055 232.964 12.6361 232.782 12.8809Z" fill="url(#paint52_linear_60_4177)"/>
<path d="M18.7767 32.9903C18.6941 32.5822 18.9913 32.5496 19.2885 32.5169C19.2283 32.6822 19.1508 32.8408 19.0574 32.9903C19.0574 32.9903 18.7767 33.0066 18.7767 32.9903Z" fill="url(#paint53_linear_60_4177)"/>
<path d="M19.3052 32.4015L19.4042 32.4988H19.3052V32.4015Z" fill="url(#paint54_linear_60_4177)"/>
<path d="M254.625 35.9434C254.718 35.9266 254.813 35.9266 254.906 35.9434C255.007 36.1052 255.095 36.2743 255.17 36.4494C254.856 36.4004 254.543 36.3678 254.625 35.9434Z" fill="url(#paint55_linear_60_4177)"/>
<path d="M252.941 36.3195C252.842 36.3195 252.726 36.1889 252.611 36.1073C252.495 36.0257 252.809 35.8462 252.925 35.8462C253.04 35.8462 253.156 35.993 253.271 36.0746C253.387 36.1562 253.057 36.3032 252.941 36.3195Z" fill="url(#paint56_linear_60_4177)"/>
<path d="M18.9256 36.6457C19.3879 36.7599 19.4044 36.9558 18.9256 37.119C18.9256 37.119 18.711 36.9721 18.6119 36.8905C18.5129 36.8089 18.8596 36.6293 18.9256 36.6457Z" fill="url(#paint57_linear_60_4177)"/>
<path d="M262.715 38.9631C262.909 39.022 263.097 39.0985 263.276 39.1915V39.4201C262.798 39.469 262.748 39.2242 262.715 38.9631Z" fill="url(#paint58_linear_60_4177)"/>
<path d="M241.532 40.8897C241.532 40.8897 241.714 40.7264 241.83 40.6285C241.945 40.5306 242.16 40.8081 242.16 40.8407C241.995 41.1998 241.747 41.2161 241.532 40.8897Z" fill="url(#paint59_linear_60_4177)"/>
<path d="M261.774 47.6461V47.7595H261.691L261.774 47.6461Z" fill="url(#paint60_linear_60_4177)"/>
<path d="M262.352 47.1736C262.352 47.1736 262.352 47.4021 262.352 47.4184L261.741 47.6469C261.807 47.3532 261.873 47.092 262.352 47.1736Z" fill="url(#paint61_linear_60_4177)"/>
<path d="M237.834 49.72C237.834 49.72 238.016 49.5404 238.115 49.4588C238.214 49.3772 238.462 49.6383 238.445 49.671C238.297 50.0464 238.049 50.0627 237.834 49.72Z" fill="url(#paint62_linear_60_4177)"/>
<path d="M21.5175 50.6503C21.4349 50.2096 21.7651 50.1932 22.0788 50.1769C22.0039 50.352 21.9156 50.5211 21.8147 50.6829C21.8147 50.6829 21.5175 50.6829 21.5175 50.6503Z" fill="url(#paint63_linear_60_4177)"/>
<path d="M272.555 53.8813C272.555 53.8813 272.275 53.8813 272.258 53.8813C272.242 53.8813 272.076 53.5386 271.994 53.3754C272.324 53.4407 272.638 53.4407 272.555 53.8813Z" fill="url(#paint64_linear_60_4177)"/>
<path d="M28.1714 61.6015C28.1714 61.6015 28.3695 61.7484 28.4851 61.8301L28.1714 62.0585L27.8577 61.8463C27.9567 61.7158 28.0558 61.6015 28.1714 61.6015Z" fill="url(#paint65_linear_60_4177)"/>
<path d="M294.563 63.6417C294.563 63.6417 294.365 63.4785 294.25 63.3968C294.134 63.3152 294.481 63.103 294.53 63.1194C295.026 63.2336 295.026 63.4621 294.563 63.6417Z" fill="url(#paint66_linear_60_4177)"/>
<path d="M297.337 65.225C297.337 65.225 297.122 65.0781 297.023 65.0128C296.924 64.9475 297.254 64.7353 297.32 64.7517C297.783 64.8659 297.783 65.0618 297.337 65.225Z" fill="url(#paint67_linear_60_4177)"/>
<path d="M19.4537 79.1302H19.3381V79.0169H19.4372C19.4499 79.0534 19.4555 79.0918 19.4537 79.1302Z" fill="url(#paint68_linear_60_4177)"/>
<path d="M20.0152 79.5558C19.5034 79.5558 19.4869 79.3436 19.4539 79.0662C19.6573 79.128 19.8559 79.2044 20.0482 79.2946C20.0482 79.2946 20.0317 79.5558 20.0152 79.5558Z" fill="url(#paint69_linear_60_4177)"/>
<path d="M299.335 91.3223C299.467 91.3223 299.533 91.6487 299.599 91.8609H298.773C298.806 91.5508 298.839 91.2244 299.335 91.3223Z" fill="url(#paint70_linear_60_4177)"/>
<path d="M299.599 91.8615H299.682C299.682 91.8615 299.615 91.8778 299.599 91.8615Z" fill="url(#paint71_linear_60_4177)"/>
<path d="M303.099 98.8305C302.918 98.9594 302.709 99.0434 302.488 99.0753C302.571 98.8794 302.62 98.6346 302.769 98.5367C302.917 98.4388 303.281 98.602 303.099 98.8305Z" fill="url(#paint72_linear_60_4177)"/>
<path d="M9.39917 100.202C9.48172 100.202 9.58079 100.104 9.66334 100.202C9.77519 100.246 9.87643 100.313 9.96051 100.398L9.39917 100.512V100.202Z" fill="url(#paint73_linear_60_4177)"/>
<path d="M3.19139 100.903C3.30696 100.903 3.42252 101.05 3.53809 101.132C3.65366 101.213 3.33996 101.36 3.22439 101.376C3.10882 101.393 2.99326 101.246 2.87769 101.164C2.76212 101.083 3.07582 100.903 3.19139 100.903Z" fill="url(#paint74_linear_60_4177)"/>
<path d="M4.44632 111.512L4.00054 111.789L3.83545 111.528L4.13262 111.251L4.44632 111.512Z" fill="url(#paint75_linear_60_4177)"/>
<path d="M277.904 116.148C278.003 116.148 278.119 116.295 278.235 116.376C278.35 116.458 278.036 116.605 277.937 116.621C277.838 116.637 277.723 116.49 277.607 116.409C277.492 116.327 277.805 116.164 277.904 116.148Z" fill="url(#paint76_linear_60_4177)"/>
<path d="M202.04 116.098C202.156 116.18 202.387 116.294 202.37 116.343C202.222 116.735 201.974 116.751 201.76 116.343C201.727 116.327 201.941 116.196 202.04 116.098Z" fill="url(#paint77_linear_60_4177)"/>
<path d="M222.727 117.976C222.727 118.074 222.546 118.22 222.447 118.22C222.347 118.22 222.232 118.09 222.133 118.008L222.413 117.731L222.727 117.976Z" fill="url(#paint78_linear_60_4177)"/>
<path d="M215.133 117.812C215.133 117.812 215.281 117.976 215.265 118.025C215.248 118.074 215.067 118.269 215.034 118.253C214.703 118.139 214.654 117.976 214.868 117.829C214.955 117.806 215.044 117.8 215.133 117.812Z" fill="url(#paint79_linear_60_4177)"/>
<path d="M210.609 118.089L210.345 118.204L210.047 117.992L210.312 117.763L210.609 118.089Z" fill="url(#paint80_linear_60_4177)"/>
<path d="M162.284 119.348C162.399 119.429 162.63 119.544 162.614 119.593C162.449 119.968 162.201 119.984 162.003 119.593C161.97 119.576 162.185 119.446 162.284 119.348Z" fill="url(#paint81_linear_60_4177)"/>
<path d="M229.81 120.114C229.926 120.212 230.157 120.326 230.14 120.359C229.975 120.75 229.727 120.767 229.513 120.359C229.496 120.359 229.711 120.212 229.81 120.114Z" fill="url(#paint82_linear_60_4177)"/>
<path d="M18.0504 120.229C18.1597 120.27 18.2604 120.331 18.3476 120.408L17.8027 120.555V120.327C17.8688 120.36 17.9679 120.213 18.0504 120.229Z" fill="url(#paint83_linear_60_4177)"/>
<path d="M133.77 121.028C133.77 121.028 133.919 121.175 133.886 121.224C133.853 121.273 133.704 121.469 133.655 121.453C133.308 121.338 133.259 121.175 133.49 121.028C133.721 120.881 133.671 121.028 133.77 121.028Z" fill="url(#paint84_linear_60_4177)"/>
<path d="M241.103 122.106C240.943 122.236 240.748 122.315 240.542 122.335C240.542 122.155 240.658 121.943 240.79 121.861C240.922 121.78 241.268 121.992 241.103 122.106Z" fill="url(#paint85_linear_60_4177)"/>
<path d="M240.543 122.334V122.464H240.41C240.401 122.438 240.401 122.409 240.41 122.383L240.543 122.334Z" fill="url(#paint86_linear_60_4177)"/>
<path d="M237.339 121.845C237.477 121.983 237.57 122.159 237.603 122.351C237.388 122.351 237.124 122.237 237.025 122.106C236.926 121.975 237.108 121.714 237.339 121.845Z" fill="url(#paint87_linear_60_4177)"/>
<path d="M235.589 122.155C235.589 122.155 235.291 122.155 235.275 122.155C235.177 121.975 235.089 121.789 235.011 121.6C235.341 121.665 235.589 121.698 235.589 122.155Z" fill="url(#paint88_linear_60_4177)"/>
<path d="M234.994 121.647H234.862C234.862 121.647 234.862 121.647 234.862 121.566H234.961L234.994 121.647Z" fill="url(#paint89_linear_60_4177)"/>
<path d="M240.377 122.465L240.096 123.003H239.799C239.716 122.514 240.03 122.481 240.377 122.465Z" fill="url(#paint90_linear_60_4177)"/>
<path d="M238.363 122.954C238.363 122.954 238.065 123.036 238.049 122.954C237.942 122.781 237.849 122.601 237.768 122.415C238.099 122.464 238.445 122.497 238.363 122.954Z" fill="url(#paint91_linear_60_4177)"/>
<path d="M237.768 122.463H237.636V122.366H237.752L237.768 122.463Z" fill="url(#paint92_linear_60_4177)"/>
<path d="M259.974 125.582V125.679H259.892L259.974 125.582Z" fill="url(#paint93_linear_60_4177)"/>
<path d="M260.535 125.093C260.535 125.534 260.288 125.566 259.974 125.583C260.052 125.404 260.14 125.229 260.238 125.06C260.339 125.054 260.439 125.065 260.535 125.093Z" fill="url(#paint94_linear_60_4177)"/>
<defs>
<linearGradient id="paint0_linear_60_4177" x1="19.363" y1="32.4015" x2="19.363" y2="32.4988" gradientUnits="userSpaceOnUse">
<stop stop-color="white"/>
<stop offset="1" stop-color="white" stop-opacity="0.43"/>
</linearGradient>
<linearGradient id="paint1_linear_60_4177" x1="154.793" y1="1.96924" x2="154.793" y2="126.031" gradientUnits="userSpaceOnUse">
<stop stop-color="white" stop-opacity="0.8"/>
<stop offset="1" stop-color="white" stop-opacity="0.3"/>
</linearGradient>
<linearGradient id="paint2_linear_60_4177" x1="273.208" y1="54.1646" x2="273.208" y2="63.0955" gradientUnits="userSpaceOnUse">
<stop stop-color="white"/>
<stop offset="1" stop-color="white" stop-opacity="0.43"/>
</linearGradient>
<linearGradient id="paint3_linear_60_4177" x1="238.133" y1="52.5692" x2="238.133" y2="54.0601" gradientUnits="userSpaceOnUse">
<stop stop-color="white"/>
<stop offset="1" stop-color="white" stop-opacity="0.43"/>
</linearGradient>
<linearGradient id="paint4_linear_60_4177" x1="26.7843" y1="70.1539" x2="26.7843" y2="70.1683" gradientUnits="userSpaceOnUse">
<stop stop-color="white"/>
<stop offset="1" stop-color="white" stop-opacity="0.43"/>
</linearGradient>
<linearGradient id="paint5_linear_60_4177" x1="22.7632" y1="69.3154" x2="22.7632" y2="72.5391" gradientUnits="userSpaceOnUse">
<stop stop-color="white"/>
<stop offset="1" stop-color="white" stop-opacity="0.43"/>
</linearGradient>
<linearGradient id="paint6_linear_60_4177" x1="262.633" y1="38.8323" x2="262.633" y2="38.9629" gradientUnits="userSpaceOnUse">
<stop stop-color="white"/>
<stop offset="1" stop-color="white" stop-opacity="0.43"/>
</linearGradient>
<linearGradient id="paint7_linear_60_4177" x1="258.925" y1="36.4138" x2="258.925" y2="38.9075" gradientUnits="userSpaceOnUse">
<stop stop-color="white"/>
<stop offset="1" stop-color="white" stop-opacity="0.43"/>
</linearGradient>
<linearGradient id="paint8_linear_60_4177" x1="18.435" y1="122.428" x2="18.435" y2="123.911" gradientUnits="userSpaceOnUse">
<stop stop-color="white"/>
<stop offset="1" stop-color="white" stop-opacity="0.43"/>
</linearGradient>
<linearGradient id="paint9_linear_60_4177" x1="1.22414" y1="105.64" x2="1.22414" y2="107.871" gradientUnits="userSpaceOnUse">
<stop stop-color="white"/>
<stop offset="1" stop-color="white" stop-opacity="0.43"/>
</linearGradient>
<linearGradient id="paint10_linear_60_4177" x1="261.743" y1="125.871" x2="261.743" y2="127.143" gradientUnits="userSpaceOnUse">
<stop stop-color="white"/>
<stop offset="1" stop-color="white" stop-opacity="0.43"/>
</linearGradient>
<linearGradient id="paint11_linear_60_4177" x1="267.297" y1="52.4938" x2="267.297" y2="52.5748" gradientUnits="userSpaceOnUse">
<stop stop-color="white"/>
<stop offset="1" stop-color="white" stop-opacity="0.43"/>
</linearGradient>
<linearGradient id="paint12_linear_60_4177" x1="269.591" y1="52.5692" x2="269.591" y2="53.2938" gradientUnits="userSpaceOnUse">
<stop stop-color="white"/>
<stop offset="1" stop-color="white" stop-opacity="0.43"/>
</linearGradient>
<linearGradient id="paint13_linear_60_4177" x1="85.6928" y1="2.82616" x2="85.6928" y2="4.28754" gradientUnits="userSpaceOnUse">
<stop stop-color="white"/>
<stop offset="1" stop-color="white" stop-opacity="0.43"/>
</linearGradient>
<linearGradient id="paint14_linear_60_4177" x1="86.9308" y1="3.54616" x2="86.9308" y2="3.65954" gradientUnits="userSpaceOnUse">
<stop stop-color="white"/>
<stop offset="1" stop-color="white" stop-opacity="0.43"/>
</linearGradient>
<linearGradient id="paint15_linear_60_4177" x1="258.527" y1="125.695" x2="258.527" y2="127.006" gradientUnits="userSpaceOnUse">
<stop stop-color="white"/>
<stop offset="1" stop-color="white" stop-opacity="0.43"/>
</linearGradient>
<linearGradient id="paint16_linear_60_4177" x1="297.797" y1="91.3292" x2="297.797" y2="93.3145" gradientUnits="userSpaceOnUse">
<stop stop-color="white"/>
<stop offset="1" stop-color="white" stop-opacity="0.43"/>
</linearGradient>
<linearGradient id="paint17_linear_60_4177" x1="55.9414" y1="0.393845" x2="55.9414" y2="1.08101" gradientUnits="userSpaceOnUse">
<stop stop-color="white"/>
<stop offset="1" stop-color="white" stop-opacity="0.43"/>
</linearGradient>
<linearGradient id="paint18_linear_60_4177" x1="11.5297" y1="45.3415" x2="11.5297" y2="46.1084" gradientUnits="userSpaceOnUse">
<stop stop-color="white"/>
<stop offset="1" stop-color="white" stop-opacity="0.43"/>
</linearGradient>
<linearGradient id="paint19_linear_60_4177" x1="231.214" y1="21.1569" x2="231.214" y2="21.2541" gradientUnits="userSpaceOnUse">
<stop stop-color="white"/>
<stop offset="1" stop-color="white" stop-opacity="0.43"/>
</linearGradient>
<linearGradient id="paint20_linear_60_4177" x1="232.468" y1="21.2538" x2="232.468" y2="22.0095" gradientUnits="userSpaceOnUse">
<stop stop-color="white"/>
<stop offset="1" stop-color="white" stop-opacity="0.43"/>
</linearGradient>
<linearGradient id="paint21_linear_60_4177" x1="212.805" y1="116.997" x2="212.805" y2="118.335" gradientUnits="userSpaceOnUse">
<stop stop-color="white"/>
<stop offset="1" stop-color="white" stop-opacity="0.43"/>
</linearGradient>
<linearGradient id="paint22_linear_60_4177" x1="88.3426" y1="125.697" x2="88.3426" y2="126.479" gradientUnits="userSpaceOnUse">
<stop stop-color="white"/>
<stop offset="1" stop-color="white" stop-opacity="0.43"/>
</linearGradient>
<linearGradient id="paint23_linear_60_4177" x1="27.2468" y1="51.8415" x2="27.2468" y2="52.5089" gradientUnits="userSpaceOnUse">
<stop stop-color="white"/>
<stop offset="1" stop-color="white" stop-opacity="0.43"/>
</linearGradient>
<linearGradient id="paint24_linear_60_4177" x1="302.024" y1="92.1061" x2="302.024" y2="94.1463" gradientUnits="userSpaceOnUse">
<stop stop-color="white"/>
<stop offset="1" stop-color="white" stop-opacity="0.43"/>
</linearGradient>
<linearGradient id="paint25_linear_60_4177" x1="206.688" y1="3.55231" x2="206.688" y2="4.36126" gradientUnits="userSpaceOnUse">
<stop stop-color="white"/>
<stop offset="1" stop-color="white" stop-opacity="0.43"/>
</linearGradient>
<linearGradient id="paint26_linear_60_4177" x1="253.027" y1="53.4077" x2="253.027" y2="54.1095" gradientUnits="userSpaceOnUse">
<stop stop-color="white"/>
<stop offset="1" stop-color="white" stop-opacity="0.43"/>
</linearGradient>
<linearGradient id="paint27_linear_60_4177" x1="305.155" y1="97.7046" x2="305.155" y2="99.1172" gradientUnits="userSpaceOnUse">
<stop stop-color="white"/>
<stop offset="1" stop-color="white" stop-opacity="0.43"/>
</linearGradient>
<linearGradient id="paint28_linear_60_4177" x1="233.641" y1="120.832" x2="233.641" y2="121.567" gradientUnits="userSpaceOnUse">
<stop stop-color="white"/>
<stop offset="1" stop-color="white" stop-opacity="0.43"/>
</linearGradient>
<linearGradient id="paint29_linear_60_4177" x1="224.816" y1="117.634" x2="224.816" y2="118.303" gradientUnits="userSpaceOnUse">
<stop stop-color="white"/>
<stop offset="1" stop-color="white" stop-opacity="0.43"/>
</linearGradient>
<linearGradient id="paint30_linear_60_4177" x1="14.7814" y1="120.065" x2="14.7814" y2="120.783" gradientUnits="userSpaceOnUse">
<stop stop-color="white"/>
<stop offset="1" stop-color="white" stop-opacity="0.43"/>
</linearGradient>
<linearGradient id="paint31_linear_60_4177" x1="35.2457" y1="124.112" x2="35.2457" y2="124.717" gradientUnits="userSpaceOnUse">
<stop stop-color="white"/>
<stop offset="1" stop-color="white" stop-opacity="0.43"/>
</linearGradient>
<linearGradient id="paint32_linear_60_4177" x1="174.773" y1="4.29692" x2="174.773" y2="4.37791" gradientUnits="userSpaceOnUse">
<stop stop-color="white"/>
<stop offset="1" stop-color="white" stop-opacity="0.43"/>
</linearGradient>
<linearGradient id="paint33_linear_60_4177" x1="173.998" y1="3.59384" x2="173.998" y2="4.32087" gradientUnits="userSpaceOnUse">
<stop stop-color="white"/>
<stop offset="1" stop-color="white" stop-opacity="0.43"/>
</linearGradient>
<linearGradient id="paint34_linear_60_4177" x1="222.868" y1="25.3015" x2="222.868" y2="25.9381" gradientUnits="userSpaceOnUse">
<stop stop-color="white"/>
<stop offset="1" stop-color="white" stop-opacity="0.43"/>
</linearGradient>
<linearGradient id="paint35_linear_60_4177" x1="21.3354" y1="33.3138" x2="21.3354" y2="34" gradientUnits="userSpaceOnUse">
<stop stop-color="white"/>
<stop offset="1" stop-color="white" stop-opacity="0.43"/>
</linearGradient>
<linearGradient id="paint36_linear_60_4177" x1="9.10506" y1="38.9615" x2="9.10506" y2="39.6414" gradientUnits="userSpaceOnUse">
<stop stop-color="white"/>
<stop offset="1" stop-color="white" stop-opacity="0.43"/>
</linearGradient>
<linearGradient id="paint37_linear_60_4177" x1="14.6811" y1="44.5769" x2="14.6811" y2="45.2453" gradientUnits="userSpaceOnUse">
<stop stop-color="white"/>
<stop offset="1" stop-color="white" stop-opacity="0.43"/>
</linearGradient>
<linearGradient id="paint38_linear_60_4177" x1="19.5363" y1="46.2723" x2="19.5363" y2="46.9674" gradientUnits="userSpaceOnUse">
<stop stop-color="white"/>
<stop offset="1" stop-color="white" stop-opacity="0.43"/>
</linearGradient>
<linearGradient id="paint39_linear_60_4177" x1="220.947" y1="48.5" x2="220.947" y2="49.2127" gradientUnits="userSpaceOnUse">
<stop stop-color="white"/>
<stop offset="1" stop-color="white" stop-opacity="0.43"/>
</linearGradient>
<linearGradient id="paint40_linear_60_4177" x1="220.111" y1="48.4631" x2="220.111" y2="48.544" gradientUnits="userSpaceOnUse">
<stop stop-color="white"/>
<stop offset="1" stop-color="white" stop-opacity="0.43"/>
</linearGradient>
<linearGradient id="paint41_linear_60_4177" x1="300.087" y1="83.3416" x2="300.087" y2="84.582" gradientUnits="userSpaceOnUse">
<stop stop-color="white"/>
<stop offset="1" stop-color="white" stop-opacity="0.43"/>
</linearGradient>
<linearGradient id="paint42_linear_60_4177" x1="298.336" y1="83.2277" x2="298.336" y2="84.4844" gradientUnits="userSpaceOnUse">
<stop stop-color="white"/>
<stop offset="1" stop-color="white" stop-opacity="0.43"/>
</linearGradient>
<linearGradient id="paint43_linear_60_4177" x1="17.6296" y1="85.4815" x2="17.6296" y2="86.2613" gradientUnits="userSpaceOnUse">
<stop stop-color="white"/>
<stop offset="1" stop-color="white" stop-opacity="0.43"/>
</linearGradient>
<linearGradient id="paint44_linear_60_4177" x1="296.413" y1="87.9277" x2="296.413" y2="89.2344" gradientUnits="userSpaceOnUse">
<stop stop-color="white"/>
<stop offset="1" stop-color="white" stop-opacity="0.43"/>
</linearGradient>
<linearGradient id="paint45_linear_60_4177" x1="300.093" y1="91.9969" x2="300.093" y2="93.35" gradientUnits="userSpaceOnUse">
<stop stop-color="white"/>
<stop offset="1" stop-color="white" stop-opacity="0.43"/>
</linearGradient>
<linearGradient id="paint46_linear_60_4177" x1="255.657" y1="125.794" x2="255.657" y2="126.251" gradientUnits="userSpaceOnUse">
<stop stop-color="white"/>
<stop offset="1" stop-color="white" stop-opacity="0.43"/>
</linearGradient>
<linearGradient id="paint47_linear_60_4177" x1="58.7728" y1="0.50769" x2="58.7728" y2="0.835712" gradientUnits="userSpaceOnUse">
<stop stop-color="white"/>
<stop offset="1" stop-color="white" stop-opacity="0.43"/>
</linearGradient>
<linearGradient id="paint48_linear_60_4177" x1="135.468" y1="1.29384" x2="135.468" y2="1.83343" gradientUnits="userSpaceOnUse">
<stop stop-color="white"/>
<stop offset="1" stop-color="white" stop-opacity="0.43"/>
</linearGradient>
<linearGradient id="paint49_linear_60_4177" x1="178.026" y1="2.0923" x2="178.026" y2="2.59829" gradientUnits="userSpaceOnUse">
<stop stop-color="white"/>
<stop offset="1" stop-color="white" stop-opacity="0.43"/>
</linearGradient>
<linearGradient id="paint50_linear_60_4177" x1="87.3138" y1="2.89999" x2="87.3138" y2="3.4639" gradientUnits="userSpaceOnUse">
<stop stop-color="white"/>
<stop offset="1" stop-color="white" stop-opacity="0.43"/>
</linearGradient>
<linearGradient id="paint51_linear_60_4177" x1="53.143" y1="10.1062" x2="53.143" y2="10.6285" gradientUnits="userSpaceOnUse">
<stop stop-color="white"/>
<stop offset="1" stop-color="white" stop-opacity="0.43"/>
</linearGradient>
<linearGradient id="paint52_linear_60_4177" x1="232.528" y1="12.5708" x2="232.528" y2="13.0931" gradientUnits="userSpaceOnUse">
<stop stop-color="white"/>
<stop offset="1" stop-color="white" stop-opacity="0.43"/>
</linearGradient>
<linearGradient id="paint53_linear_60_4177" x1="19.0256" y1="32.5169" x2="19.0256" y2="32.9975" gradientUnits="userSpaceOnUse">
<stop stop-color="white"/>
<stop offset="1" stop-color="white" stop-opacity="0.43"/>
</linearGradient>
<linearGradient id="paint54_linear_60_4177" x1="19.3547" y1="32.4015" x2="19.3547" y2="32.4988" gradientUnits="userSpaceOnUse">
<stop stop-color="white"/>
<stop offset="1" stop-color="white" stop-opacity="0.43"/>
</linearGradient>
<linearGradient id="paint55_linear_60_4177" x1="254.891" y1="35.9308" x2="254.891" y2="36.4494" gradientUnits="userSpaceOnUse">
<stop stop-color="white"/>
<stop offset="1" stop-color="white" stop-opacity="0.43"/>
</linearGradient>
<linearGradient id="paint56_linear_60_4177" x1="252.941" y1="35.8462" x2="252.941" y2="36.3195" gradientUnits="userSpaceOnUse">
<stop stop-color="white"/>
<stop offset="1" stop-color="white" stop-opacity="0.43"/>
</linearGradient>
<linearGradient id="paint57_linear_60_4177" x1="18.9364" y1="36.6446" x2="18.9364" y2="37.119" gradientUnits="userSpaceOnUse">
<stop stop-color="white"/>
<stop offset="1" stop-color="white" stop-opacity="0.43"/>
</linearGradient>
<linearGradient id="paint58_linear_60_4177" x1="262.996" y1="38.9631" x2="262.996" y2="39.4264" gradientUnits="userSpaceOnUse">
<stop stop-color="white"/>
<stop offset="1" stop-color="white" stop-opacity="0.43"/>
</linearGradient>
<linearGradient id="paint59_linear_60_4177" x1="241.846" y1="40.6077" x2="241.846" y2="41.1228" gradientUnits="userSpaceOnUse">
<stop stop-color="white"/>
<stop offset="1" stop-color="white" stop-opacity="0.43"/>
</linearGradient>
<linearGradient id="paint60_linear_60_4177" x1="261.733" y1="47.6461" x2="261.733" y2="47.7595" gradientUnits="userSpaceOnUse">
<stop stop-color="white"/>
<stop offset="1" stop-color="white" stop-opacity="0.43"/>
</linearGradient>
<linearGradient id="paint61_linear_60_4177" x1="262.046" y1="47.1585" x2="262.046" y2="47.6469" gradientUnits="userSpaceOnUse">
<stop stop-color="white"/>
<stop offset="1" stop-color="white" stop-opacity="0.43"/>
</linearGradient>
<linearGradient id="paint62_linear_60_4177" x1="238.14" y1="49.4431" x2="238.14" y2="49.9653" gradientUnits="userSpaceOnUse">
<stop stop-color="white"/>
<stop offset="1" stop-color="white" stop-opacity="0.43"/>
</linearGradient>
<linearGradient id="paint63_linear_60_4177" x1="21.7917" y1="50.1769" x2="21.7917" y2="50.6829" gradientUnits="userSpaceOnUse">
<stop stop-color="white"/>
<stop offset="1" stop-color="white" stop-opacity="0.43"/>
</linearGradient>
<linearGradient id="paint64_linear_60_4177" x1="272.281" y1="53.3754" x2="272.281" y2="53.8813" gradientUnits="userSpaceOnUse">
<stop stop-color="white"/>
<stop offset="1" stop-color="white" stop-opacity="0.43"/>
</linearGradient>
<linearGradient id="paint65_linear_60_4177" x1="28.1714" y1="61.6015" x2="28.1714" y2="62.0585" gradientUnits="userSpaceOnUse">
<stop stop-color="white"/>
<stop offset="1" stop-color="white" stop-opacity="0.43"/>
</linearGradient>
<linearGradient id="paint66_linear_60_4177" x1="294.566" y1="63.1185" x2="294.566" y2="63.6417" gradientUnits="userSpaceOnUse">
<stop stop-color="white"/>
<stop offset="1" stop-color="white" stop-opacity="0.43"/>
</linearGradient>
<linearGradient id="paint67_linear_60_4177" x1="297.337" y1="64.7508" x2="297.337" y2="65.225" gradientUnits="userSpaceOnUse">
<stop stop-color="white"/>
<stop offset="1" stop-color="white" stop-opacity="0.43"/>
</linearGradient>
<linearGradient id="paint68_linear_60_4177" x1="19.3961" y1="79.0169" x2="19.3961" y2="79.1302" gradientUnits="userSpaceOnUse">
<stop stop-color="white"/>
<stop offset="1" stop-color="white" stop-opacity="0.43"/>
</linearGradient>
<linearGradient id="paint69_linear_60_4177" x1="19.751" y1="79.0662" x2="19.751" y2="79.5558" gradientUnits="userSpaceOnUse">
<stop stop-color="white"/>
<stop offset="1" stop-color="white" stop-opacity="0.43"/>
</linearGradient>
<linearGradient id="paint70_linear_60_4177" x1="299.186" y1="91.3046" x2="299.186" y2="91.8609" gradientUnits="userSpaceOnUse">
<stop stop-color="white"/>
<stop offset="1" stop-color="white" stop-opacity="0.43"/>
</linearGradient>
<linearGradient id="paint71_linear_60_4177" x1="299.64" y1="91.8615" x2="299.64" y2="91.8688" gradientUnits="userSpaceOnUse">
<stop stop-color="white"/>
<stop offset="1" stop-color="white" stop-opacity="0.43"/>
</linearGradient>
<linearGradient id="paint72_linear_60_4177" x1="302.818" y1="98.5077" x2="302.818" y2="99.0753" gradientUnits="userSpaceOnUse">
<stop stop-color="white"/>
<stop offset="1" stop-color="white" stop-opacity="0.43"/>
</linearGradient>
<linearGradient id="paint73_linear_60_4177" x1="9.67984" y1="100.158" x2="9.67984" y2="100.512" gradientUnits="userSpaceOnUse">
<stop stop-color="white"/>
<stop offset="1" stop-color="white" stop-opacity="0.43"/>
</linearGradient>
<linearGradient id="paint74_linear_60_4177" x1="3.20789" y1="100.903" x2="3.20789" y2="101.378" gradientUnits="userSpaceOnUse">
<stop stop-color="white"/>
<stop offset="1" stop-color="white" stop-opacity="0.43"/>
</linearGradient>
<linearGradient id="paint75_linear_60_4177" x1="4.14088" y1="111.251" x2="4.14088" y2="111.789" gradientUnits="userSpaceOnUse">
<stop stop-color="white"/>
<stop offset="1" stop-color="white" stop-opacity="0.43"/>
</linearGradient>
<linearGradient id="paint76_linear_60_4177" x1="277.921" y1="116.148" x2="277.921" y2="116.622" gradientUnits="userSpaceOnUse">
<stop stop-color="white"/>
<stop offset="1" stop-color="white" stop-opacity="0.43"/>
</linearGradient>
<linearGradient id="paint77_linear_60_4177" x1="202.064" y1="116.098" x2="202.064" y2="116.643" gradientUnits="userSpaceOnUse">
<stop stop-color="white"/>
<stop offset="1" stop-color="white" stop-opacity="0.43"/>
</linearGradient>
<linearGradient id="paint78_linear_60_4177" x1="222.43" y1="117.731" x2="222.43" y2="118.22" gradientUnits="userSpaceOnUse">
<stop stop-color="white"/>
<stop offset="1" stop-color="white" stop-opacity="0.43"/>
</linearGradient>
<linearGradient id="paint79_linear_60_4177" x1="215.002" y1="117.806" x2="215.002" y2="118.254" gradientUnits="userSpaceOnUse">
<stop stop-color="white"/>
<stop offset="1" stop-color="white" stop-opacity="0.43"/>
</linearGradient>
<linearGradient id="paint80_linear_60_4177" x1="210.328" y1="117.763" x2="210.328" y2="118.204" gradientUnits="userSpaceOnUse">
<stop stop-color="white"/>
<stop offset="1" stop-color="white" stop-opacity="0.43"/>
</linearGradient>
<linearGradient id="paint81_linear_60_4177" x1="162.307" y1="119.348" x2="162.307" y2="119.88" gradientUnits="userSpaceOnUse">
<stop stop-color="white"/>
<stop offset="1" stop-color="white" stop-opacity="0.43"/>
</linearGradient>
<linearGradient id="paint82_linear_60_4177" x1="229.827" y1="120.114" x2="229.827" y2="120.659" gradientUnits="userSpaceOnUse">
<stop stop-color="white"/>
<stop offset="1" stop-color="white" stop-opacity="0.43"/>
</linearGradient>
<linearGradient id="paint83_linear_60_4177" x1="18.0752" y1="120.228" x2="18.0752" y2="120.555" gradientUnits="userSpaceOnUse">
<stop stop-color="white"/>
<stop offset="1" stop-color="white" stop-opacity="0.43"/>
</linearGradient>
<linearGradient id="paint84_linear_60_4177" x1="133.619" y1="120.963" x2="133.619" y2="121.454" gradientUnits="userSpaceOnUse">
<stop stop-color="white"/>
<stop offset="1" stop-color="white" stop-opacity="0.43"/>
</linearGradient>
<linearGradient id="paint85_linear_60_4177" x1="240.845" y1="121.843" x2="240.845" y2="122.335" gradientUnits="userSpaceOnUse">
<stop stop-color="white"/>
<stop offset="1" stop-color="white" stop-opacity="0.43"/>
</linearGradient>
<linearGradient id="paint86_linear_60_4177" x1="240.473" y1="122.334" x2="240.473" y2="122.464" gradientUnits="userSpaceOnUse">
<stop stop-color="white"/>
<stop offset="1" stop-color="white" stop-opacity="0.43"/>
</linearGradient>
<linearGradient id="paint87_linear_60_4177" x1="237.3" y1="121.809" x2="237.3" y2="122.351" gradientUnits="userSpaceOnUse">
<stop stop-color="white"/>
<stop offset="1" stop-color="white" stop-opacity="0.43"/>
</linearGradient>
<linearGradient id="paint88_linear_60_4177" x1="235.3" y1="121.6" x2="235.3" y2="122.155" gradientUnits="userSpaceOnUse">
<stop stop-color="white"/>
<stop offset="1" stop-color="white" stop-opacity="0.43"/>
</linearGradient>
<linearGradient id="paint89_linear_60_4177" x1="234.928" y1="121.566" x2="234.928" y2="121.647" gradientUnits="userSpaceOnUse">
<stop stop-color="white"/>
<stop offset="1" stop-color="white" stop-opacity="0.43"/>
</linearGradient>
<linearGradient id="paint90_linear_60_4177" x1="240.081" y1="122.465" x2="240.081" y2="123.003" gradientUnits="userSpaceOnUse">
<stop stop-color="white"/>
<stop offset="1" stop-color="white" stop-opacity="0.43"/>
</linearGradient>
<linearGradient id="paint91_linear_60_4177" x1="238.072" y1="122.415" x2="238.072" y2="122.99" gradientUnits="userSpaceOnUse">
<stop stop-color="white"/>
<stop offset="1" stop-color="white" stop-opacity="0.43"/>
</linearGradient>
<linearGradient id="paint92_linear_60_4177" x1="237.702" y1="122.366" x2="237.702" y2="122.463" gradientUnits="userSpaceOnUse">
<stop stop-color="white"/>
<stop offset="1" stop-color="white" stop-opacity="0.43"/>
</linearGradient>
<linearGradient id="paint93_linear_60_4177" x1="259.933" y1="125.582" x2="259.933" y2="125.679" gradientUnits="userSpaceOnUse">
<stop stop-color="white"/>
<stop offset="1" stop-color="white" stop-opacity="0.43"/>
</linearGradient>
<linearGradient id="paint94_linear_60_4177" x1="260.255" y1="125.058" x2="260.255" y2="125.583" gradientUnits="userSpaceOnUse">
<stop stop-color="white"/>
<stop offset="1" stop-color="white" stop-opacity="0.43"/>
</linearGradient>
</defs>
</svg>
